<?xml version="1.0" encoding="UTF-8" standalone="no"?>
<!-- Created with Inkscape (http://www.inkscape.org/) -->

<svg
   xmlns:dc="http://purl.org/dc/elements/1.1/"
   xmlns:cc="http://creativecommons.org/ns#"
   xmlns:rdf="http://www.w3.org/1999/02/22-rdf-syntax-ns#"
   xmlns:svg="http://www.w3.org/2000/svg"
   xmlns="http://www.w3.org/2000/svg"
   xmlns:sodipodi="http://sodipodi.sourceforge.net/DTD/sodipodi-0.dtd"
   xmlns:inkscape="http://www.inkscape.org/namespaces/inkscape"
   width="500"
   height="500"
   viewBox="0 0 132.29166 132.29167"
   version="1.1"
   id="svg8"
   inkscape:version="0.92.4 5da689c313, 2019-01-14"
   sodipodi:docname="stop.svg">
  <defs
     id="defs2">
    <filter
       inkscape:collect="always"
       style="color-interpolation-filters:sRGB"
       id="filter4642"
       x="-0.045597694"
       width="1.0911954"
       y="-0.045602307"
       height="1.0912046">
      <feGaussianBlur
         inkscape:collect="always"
         stdDeviation="2.4187808"
         id="feGaussianBlur4644" />
    </filter>
  </defs>
  <sodipodi:namedview
     id="base"
     pagecolor="#ffffff"
     bordercolor="#666666"
     borderopacity="1.0"
     inkscape:pageopacity="0.0"
     inkscape:pageshadow="2"
     inkscape:zoom="1.4085567"
     inkscape:cx="224.77406"
     inkscape:cy="217.10334"
     inkscape:document-units="mm"
     inkscape:current-layer="layer1"
     showgrid="false"
     units="px"
     inkscape:window-width="2329"
     inkscape:window-height="1221"
     inkscape:window-x="1111"
     inkscape:window-y="89"
     inkscape:window-maximized="0" />
  <metadata
     id="metadata5">
    <rdf:RDF>
      <cc:Work
         rdf:about="">
        <dc:format>image/svg+xml</dc:format>
        <dc:type
           rdf:resource="http://purl.org/dc/dcmitype/StillImage" />
        <dc:title></dc:title>
      </cc:Work>
    </rdf:RDF>
  </metadata>
  <g
     inkscape:label="Layer 1"
     inkscape:groupmode="layer"
     id="layer1"
     transform="translate(0,-164.70832)">
    <path
       transform="matrix(0.90644243,-0.37574979,0.37587934,0.90613004,-43.243196,58.139022)"
       d="m 35.52976,274.22608 -48.709279,-20.17604 -20.176045,-48.70928 20.176042,-48.70928 48.709279,-20.17604 48.709279,20.17604 20.176044,48.70928 -20.176042,48.70928 z"
       inkscape:randomized="0"
       inkscape:rounded="0"
       inkscape:flatsided="true"
       sodipodi:arg2="1.9634954"
       sodipodi:arg1="1.5707963"
       sodipodi:r2="63.641735"
       sodipodi:r1="68.885323"
       sodipodi:cy="205.34076"
       sodipodi:cx="35.529758"
       sodipodi:sides="8"
       id="path4636"
       style="opacity:1;fill:#000000;fill-opacity:1;stroke:#ffffff;stroke-width:2.03849209;stroke-linecap:round;stroke-linejoin:miter;stroke-miterlimit:4;stroke-dasharray:none;stroke-opacity:1;filter:url(#filter4642)"
       sodipodi:type="star" />
    <path
       sodipodi:type="star"
       style="opacity:1;fill:#d50002;fill-opacity:1;stroke:#ffffff;stroke-width:3.05773813;stroke-linecap:round;stroke-linejoin:miter;stroke-miterlimit:4;stroke-dasharray:none;stroke-opacity:1"
       id="path4520"
       sodipodi:sides="8"
       sodipodi:cx="35.529758"
       sodipodi:cy="205.34076"
       sodipodi:r1="68.885323"
       sodipodi:r2="63.641735"
       sodipodi:arg1="1.5707963"
       sodipodi:arg2="1.9634954"
       inkscape:flatsided="true"
       inkscape:rounded="0"
       inkscape:randomized="0"
       d="m 35.52976,274.22608 -48.709279,-20.17604 -20.176045,-48.70928 20.176042,-48.70928 48.709279,-20.17604 48.709279,20.17604 20.176044,48.70928 -20.176042,48.70928 z"
       transform="matrix(0.90644243,-0.37574979,0.37587934,0.90613004,-43.243196,58.139022)" />
    <g
       id="g4634"
       style="fill:#ffffff"
       transform="matrix(1.3107494,0,0,1.3107494,341.67846,-70.031582)">
      <path
         id="path4622"
         transform="matrix(0.26458333,0,0,0.26458333,0,164.70832)"
         d="m -765.13281,179.35156 c -1.60233,-0.008 -2.94039,0.15608 -5.07813,0.56446 -13.42809,2.56524 -22.95839,11.09655 -26.64453,23.85351 -4.62342,16.00071 -6.62101,42.05738 -4.63672,60.48828 0.44353,4.11946 1.81717,13.53147 2.19531,15.04102 0.0881,0.35187 0.3994,1.79119 0.69141,3.19922 2.34161,11.29031 8.64229,20.23321 17.30274,24.56054 6.95769,3.47649 15.71547,4.62738 23.33984,3.06836 3.77291,-0.77144 7.58322,-2.24278 11.01367,-4.2539 2.77535,-1.62709 7.14654,-5.52783 8.98438,-8.01563 3.70102,-5.00988 6.89386,-14.55486 8.61328,-25.75976 0.36472,-2.376 0.73797,-4.67913 0.83008,-5.11914 0.26683,-1.27507 1.04581,-8.67103 1.5,-14.24024 0.87719,-10.75612 0.20825,-26.31131 -1.51563,-35.20117 -1.4626,-7.54337 -2.545,-11.69554 -4.20508,-16.14453 -1.99377,-5.3432 -3.60805,-7.94831 -7.36328,-11.87891 -5.97721,-6.25621 -13.55318,-9.54256 -23.29687,-10.10351 -0.63187,-0.0378 -1.19639,-0.0567 -1.73047,-0.0586 z m 0.70312,17.89453 c 0.92944,0.0212 1.89143,0.12324 2.88281,0.30664 2.84712,0.52634 5.09938,1.69909 7.4004,3.85157 3.3219,3.10749 5.71679,8.55418 7.02148,15.97461 1.896,10.78344 2.25503,15.86303 2.01953,28.56054 -0.10545,5.67534 -0.33523,11.43413 -0.50976,12.79688 -2.23087,17.4359 -4.55248,25.33427 -8.78907,29.90039 -3.67872,3.96484 -9.35601,5.45109 -15.03906,3.9375 -2.56101,-0.68205 -4.92928,-2.21258 -6.78711,-4.38672 -1.62206,-1.89827 -1.84019,-2.30633 -2.98633,-5.59766 -1.68665,-4.8435 -2.51131,-8.78939 -4.1875,-20.01172 -0.87163,-5.83559 -0.88679,-23.56734 -0.0234,-29.95898 1.3412,-9.93642 1.62902,-11.97124 1.78515,-12.68164 0.0968,-0.43997 0.51451,-2.38433 0.92969,-4.32031 1.13235,-5.28027 1.71606,-7.10618 3.16797,-9.91992 2.78196,-5.39131 6.95052,-8.25853 12.19726,-8.44532 0.30271,-0.0108 0.60816,-0.0129 0.91797,-0.006 z"
         style="opacity:1;fill:#ffffff;fill-opacity:1;stroke:none;stroke-width:8.0012598;stroke-linecap:round;stroke-linejoin:miter;stroke-miterlimit:4;stroke-dasharray:none;stroke-opacity:1"
         inkscape:connector-curvature="0" />
      <path
         id="path4620"
         d="m -241.96429,212.40942 c -1.14697,0.0125 -2.45784,0.26293 -3.49592,0.69195 -2.2893,0.94619 -4.11781,2.85528 -4.8829,5.0984 -0.93223,2.73312 -0.39673,5.51856 1.5322,7.96902 0.91304,1.1599 1.61702,1.60208 5.55212,3.48609 1.30295,0.62381 2.3258,1.33233 3.21221,2.22467 1.2916,1.30024 1.97974,2.58436 2.3797,4.44056 0.0401,0.18627 0.075,0.70361 0.077,1.1498 0.006,1.36814 -0.39311,2.34728 -1.33635,3.2768 -0.90775,0.89454 -1.80178,1.23733 -3.23185,1.2392 -0.64556,8.5e-4 -1.02843,-0.0429 -1.39733,-0.16071 -1.14759,-0.36657 -2.26351,-1.27256 -2.69131,-2.18436 -0.2625,-0.5595 -0.48369,-1.69537 -0.48369,-2.48512 v -0.53951 h -2.59416 -2.59415 l 0.0501,0.4868 c 0.174,1.70256 0.59934,3.40472 1.09399,4.37699 0.93126,1.83049 2.62477,3.50844 4.38319,4.34289 1.61965,0.76859 2.57138,0.95793 4.61419,0.91932 1.34605,-0.0255 1.61315,-0.0545 2.28617,-0.25166 0.85444,-0.25033 2.44905,-1.00351 2.96364,-1.3994 1.03201,-0.79397 1.2519,-0.99327 1.68672,-1.52962 1.22124,-1.50639 1.74318,-2.57399 2.07997,-4.25401 0.54343,-2.71076 -0.2203,-5.98156 -2.02468,-8.67234 -1.58776,-2.36775 -3.43661,-3.82456 -7.28844,-5.74331 -1.82769,-0.91046 -2.52091,-1.36121 -3.02514,-1.96681 -0.59339,-0.7127 -0.79174,-1.26824 -0.79478,-2.22932 -0.005,-1.60641 1.15719,-2.96488 2.92798,-3.42253 0.89798,-0.23207 1.68676,-0.13192 2.63757,0.33435 1.03571,0.5079 1.86746,1.61006 1.96267,2.60087 l 0.0388,0.40618 h 2.45567 2.45566 l -0.0465,-0.61392 c -0.0257,-0.33761 -0.0656,-0.69028 -0.0884,-0.78341 -0.0227,-0.0931 -0.0874,-0.35989 -0.14366,-0.59273 -0.16455,-0.68073 -0.8633,-2.06115 -1.41904,-2.80345 -1.29595,-1.73098 -3.46352,-2.98528 -5.77536,-3.34243 -0.32974,-0.0509 -0.69358,-0.0734 -1.0759,-0.0692 z"
         style="opacity:1;fill:#ffffff;fill-opacity:1;stroke:none;stroke-width:2.11699986;stroke-linecap:round;stroke-linejoin:miter;stroke-miterlimit:4;stroke-dasharray:none;stroke-opacity:1"
         inkscape:connector-curvature="0" />
      <path
         id="path4618"
         d="m -231.40577,212.90965 v 2.07429 2.07429 h 3.13263 3.13263 v 14.56294 14.56242 h 2.45566 2.45514 v -14.56242 -14.56294 h 3.13263 3.13263 v -2.07429 -2.07429 h -8.7204 z"
         style="opacity:1;fill:#ffffff;fill-opacity:1;stroke:none;stroke-width:2.11699986;stroke-linecap:round;stroke-linejoin:miter;stroke-miterlimit:4;stroke-dasharray:none;stroke-opacity:1"
         inkscape:connector-curvature="0" />
      <path
         id="path4616"
         transform="matrix(0.26458333,0,0,0.26458333,0,164.70832)"
         d="m -677.35352,182.54102 c -2.85367,-0.002 -6.35017,0.008 -10.68945,0.0273 l -20.64062,0.0898 -0.082,62.63868 -0.0801,62.64062 h 9.27929 9.28125 v -27.50195 -27.50196 l 14.32032,-0.11328 14.32031,-0.11328 2.47656,-0.84961 c 4.83111,-1.65668 9.89235,-4.72434 12.60938,-7.64062 6.12691,-6.57623 9.73956,-16.44816 9.70312,-26.51172 -0.008,-2.41818 -0.35261,-6.01096 -0.75195,-7.84766 -1.73635,-7.98028 -4.81573,-14.04988 -9.54883,-18.82422 -4.81765,-4.8596 -9.40275,-7.09698 -16.49609,-8.05078 -2.36683,-0.31821 -5.13912,-0.43488 -13.69922,-0.4414 z m -12.92968,17.52929 12.40039,0.0937 12.40039,0.0937 2.11328,1.03516 c 3.5198,1.72225 6.09619,5.23248 7.16406,9.76172 0.63209,2.68093 0.63184,10.52831 -0.002,13.51758 -1.12067,5.29062 -3.70671,8.40763 -8.44336,10.18359 -1.6814,0.63042 -2.54083,0.68101 -13.71289,0.78906 l -11.91992,0.11524 v -17.79493 z"
         style="opacity:1;fill:#ffffff;fill-opacity:1;stroke:none;stroke-width:8.0012598;stroke-linecap:round;stroke-linejoin:miter;stroke-miterlimit:4;stroke-dasharray:none;stroke-opacity:1"
         inkscape:connector-curvature="0" />
    </g>
  </g>
</svg>
