<?xml version="1.0" encoding="utf-8"?>
<!-- Generator: Adobe Illustrator 25.4.1, SVG Export Plug-In . SVG Version: 6.00 Build 0)  -->
<svg version="1.1" id="learning" xmlns="http://www.w3.org/2000/svg" xmlns:xlink="http://www.w3.org/1999/xlink" x="0px" y="0px"
	 viewBox="0 0 972.3 853.6" enable-background="new 0 0 972.3 853.6" xml:space="preserve">
<g id="lines">
	
		<line fill="none" stroke="#C6C6C6" stroke-width="3" stroke-linecap="round" stroke-dasharray="12.37,14.43" x1="458.1" y1="206.3" x2="458.1" y2="412.2"/>
	<path fill="none" stroke="#C6C6C6" stroke-width="3" stroke-linecap="round" stroke-dasharray="11.76,13.72" d="M264.7,420.3v-65.9
		c0-49.5,40.1-89.6,89.6-89.6h213.5c46.4,0,84,37.6,84,84v78.4"/>
</g>
<g id="people">
	<path fill="#723E24" d="M681.2,799.2l-79.1-188.9l12.7-5l72,191.8c0.7,2,0.1,4-1.4,4.6S682,801.1,681.2,799.2z"/>
	<path opacity="0.37" enable-background="new    " d="M616.9,611l-8.1,3.2l74.4,187.2c-0.9-0.5-1.7-1.3-2.1-2.2l-79.1-189l12.7-5
		L616.9,611z"/>
	<path fill="#723E24" d="M556,798l-3.8-204.8h13.6L562,798c0,2.1-1.4,3.8-3,3.8S556,800,556,798z"/>
	<path opacity="0.37" enable-background="new    " d="M565.7,598.5h-10.2l3.8,203.1c-0.1,0-0.2,0-0.4,0c-1.6,0-2.9-1.7-3-3.8
		l-3.8-204.8h13.6L565.7,598.5z"/>
	<path fill="#723E24" d="M445.5,787.1l79.1-189l-12.7-5l-72,191.8c-0.7,2-0.1,4,1.4,4.6S444.7,789,445.5,787.1z"/>
	<g opacity="0.37">
		<path d="M439.9,784.9l72-191.8l12.7,5l-1.5,3.5l-7.8-3.1l-71.6,190.7c-0.7,0.5-1.6,0.6-2.4,0.3
			C439.8,788.9,439.2,786.9,439.9,784.9z"/>
	</g>
	<path fill="#B3B3B3" d="M468.6,609.9c13.8,11.2,34.3,21.6,86.3,22.6c68.4,1.3,104.2-6.4,123.7-41.7c32.5-58.9-8.2-249.3-72.2-207.1
		C552.8,418.9,542.1,531.5,535,547S435.1,582.6,468.6,609.9z"/>
	<path fill="#CCCCCC" d="M543.1,617.9c68.4,1.3,104.2-6.4,123.7-41.7c22.2-40.2,10.3-141.7-19.9-188.6
		c38.6,35.8,56.6,158.1,31.8,203.2c-19.4,35.3-55.2,43-123.7,41.7c-52-1-72.5-11.4-86.3-22.6c-4.7-3.8-6.9-7.5-7.2-11.1
		C475.2,608.6,496.5,617,543.1,617.9z"/>
	<path fill="#C19584" d="M419.8,420c0,0-2.6-5.1-4.2-8.1c-3.9-7.2-11.5-10.2-14.3-12.5s-11.9-8.5-14.7-9.3
		c-1.9-0.5-18.1-5.2-16.8-10.1c0.8-2.9,21.1,1.6,24,3.1c0,0,0.9-4.9,7.5-0.9c4.3,2.6,9.5,3,13.6,6.4c2.7,2.2,5.2,4.7,6.5,9.4
		c1.1,4.2,7,11.2,7,11.2"/>
	<path fill="#C19584" d="M603.5,354.9c0.4,7.5-0.2,20.7,2,22.6s9.1,1.6,9.1,1.6s-25,31.5-27.2,29.8s-31.7-25.8-25.1-27
		s13.1-1,12.9-4.4s-0.4-6.9-0.6-10.3"/>
	<path fill="#F9C13E" d="M632,523.4c0,0-48.7,5.5-59.9,5.8s-10.7-5.6-10.7-5.6c-0.6-12.3-2.7-41.4-5-51.2c-2.2-9.2-3.1-12.6-5-21.3
		c-4.2-19.4-4-23.1-8.4-47.1l29.1-23.4c0,0,3,8.9,15.2,9.1c16.3,0.2,21.4-11.2,21.4-11.2l39.7,26.3l3.7,64l-4.7,52.7"/>
	<path fill="#C19584" d="M604.1,348.1c-0.9,3.8-2,7.5-3.4,11.2c-2.6,6.7-6.4,9.1-13.4,9.2l-14.9,0.4c-3.8,0.1-8.6,0.2-11.6-2.5
		s-3.1-7.1-3.8-10.8c-0.9-4.7-1.6-9.4-2.1-14.2c-1.1-9.3-1.5-18.6-1.3-28c0-1.3,0.1-2.6,0.3-3.8c0.1-0.5,0.3-1,0.6-1.4
		c0.5-0.4,1.1-0.7,1.8-0.7c9.3-1.5,18.7-2.1,28.2-1.8c6.7,0.2,13.7,1,19,5s7.8,10.8,10.1,17.1c0.4,1,0.6,2.4-0.2,3"/>
	<path fill="#AE8677" d="M461.3,748.9c0,0,1.8,11,3.3,14.7s13.8,0.3,14.6-2.1s-3.9-20.3-3.9-20.3"/>
	<path fill="#00414E" d="M483.5,764.6c1.1,4,2.4,11.8,2.4,11.8l-12.3,5.4l-2-1.9c-1.9,2.2-4.2,4.1-6.8,5.5
		c-3.8,1.6-7.8,2.7-11.9,3.3c-10.8,1.2-23.5,0.2-24.1-1.3c-2.7-6.2,11.6-7.9,14.4-8.6c8.1-2.1,17.4-10.1,18.3-14.6
		c0.6-3.3-0.2-3.8,1.6-3.7c1.2,0,2.3,0.6,3.1,1.5c2.2,2.5,5.7,3.3,8.8,2c1.8-0.7,3.3-2,4.4-3.6C479.3,760.2,482.5,760.5,483.5,764.6
		z"/>
	<path fill="#552B5D" d="M515.8,605.3c-19.3,3.8-43.4,4.1-62.9,1.5c2.7,7.8,9.4,17.8,11.9,28.8c8.4,36.3,11.3,85,13.4,115.1
		c0,0-4,7.7-16.9,1.8c-19.3-47.6-53-144.2-52.6-165.1c0.4-26.7,66.9-33.1,115.7-39.7"/>
	<path fill="#391D3E" d="M600.8,551.9c15.3,11.2-85,53.4-85,53.4c-10.8,2.1-21.9,3.2-32.9,3.1c-1.1-1.9-1.9-4-2.4-6.2
		c-0.6-2.9-0.3-6-0.8-8.9c-1-5.7-5.1-10.5-10-13.5s-10.7-4.4-16.4-5.3c-13.6-2.2-37.3-0.7-37.3-0.7c30.2-22.2,91.9-25.1,120.6-27
		C542.1,555.9,598.6,550.3,600.8,551.9z"/>
	<path fill="#AE8677" d="M493.1,774.2c0,0-0.1,11.1,0.7,15.1s13.5,2.7,14.8,0.4s-0.3-20.7-0.3-20.7"/>
	<path fill="#00414E" d="M512.3,793.6c0.3,4.2,0.3,12.1,0.3,12.1l-13.1,3.2l-1.7-2.2c-2.3,1.9-4.9,3.3-7.7,4.2
		c-4,0.9-8.2,1.3-12.3,1.2c-10.8-0.7-25.8-3.9-26.1-5.5c-1.5-6.6,12.8-5.8,15.7-6c8.4-0.7,21.5-6.9,23.2-11.2
		c1.2-3.1,0.5-3.8,2.3-3.4c1.2,0.3,2.2,1,2.8,2c1.7,2.8,5,4.2,8.3,3.5c1.9-0.4,3.6-1.4,4.9-2.8C508.9,788.6,511.9,789.4,512.3,793.6
		z"/>
	<path fill="#552B5D" d="M634.3,549.7c-22.6,2-45.3,2.7-68,2.2c-8.7,0-74.4,12.3-80.6,23.5c-10.3,18.3,6.7,125.3,5.1,201.9
		c0,0,7.9,6.6,21.8,0.4C516,740,538.3,651.2,523,609.8c36.2,4.8,65.4,9.6,98.3-1.3c7.7-2.5,13.5-8,16.9-18S639.9,558.6,634.3,549.7z
		"/>
	<path fill="#F9C13E" d="M572.1,380.5c0,0-7,0.4-8.3,0.5c-5.8,0.3-11.6,1.4-17.2,3.2c-7.9,2.9-13.5,10.3-19.9,16
		c-6.2,5.5-38.2,36-44.2,37.2s-58.4-34.8-58.4-34.8l-12.8,12.8c0,0,56.9,52.6,73.9,52.6c8.2,0,53.7-23.9,68.2-33.2L572.1,380.5z"/>
	<path opacity="0.25" fill="#F8B20E" enable-background="new    " d="M485.4,457.9c-11.7,0.7-65.3-40.3-71.5-45l-2.5,2.5
		c0,0,56.9,52.6,73.9,52.6c6.9,0,39.5-16.6,58.7-27.5l5-2.9l-3-17.7C545.9,420,497.8,457.2,485.4,457.9z"/>
	<g opacity="0.25">
		<path fill="#F8B20E" d="M629.4,417.2c-6.5,29.3-7.6,52.2-9.5,73.2c-22.8,8.8-38.7,21.2-61,31.1c0,0-10.9-2.1-12.7,4.5
			c-1.1,3.8,19.6,2.4,19.6,2.4c20.6,0.1,76.1-10.5,79.8-11.5s14.4-70.2,14.8-107.8c0.1-5.3-0.1-11.1-3.5-15.3
			c-1.9-2.1-4.2-3.8-6.7-5c-14.5-7.4-25.3-9.5-41.6-10.5"/>
	</g>
	<path fill="#FFB9B0" d="M568.7,523.4c-2.5-3.1-6.9-3.5-10.8-3.4c-2.9,0.1-5.8,0.3-8.7,0.7c-1.3,0.2-2.8,0.5-3,1.9s6.4,0,9.8,1
		c-6.7,0.6-13.4,0.8-20.1,0.5c-0.8-0.1-1.6,0-2.3,0.2c-0.8,0.3-1.3,1-1.3,1.8c0.1,0.6,0.4,1.2,0.9,1.5c1.9,1.7,4.4,2.4,6.9,2.8
		c10.3,1.8,21.1,1.5,30.6-2.7"/>
	<path fill="#F9C13E" d="M628,416.6c-0.5,31.3-2.8,45.7-2.2,77c-15.7,3.4-42.3,16.7-64.6,26.6c0,0,0.7,7.5,2.8,11.2
		c1.7,0.6,77.9-15.9,83.8-21.2c5.2-4.8,12.2-63.6,12.6-101.1c0.1-5.3-0.1-11.1-3.5-15.3c-1.9-2.1-4.2-3.8-6.7-5
		c-14.5-7.4-25.3-9.5-41.6-10.5"/>
	<path fill="#CCCCCC" d="M430.8,532H561l-23.4-76.1c-1.3-4.2-5.2-7.1-9.6-7.1H414c-3.6,0-6.5,2.9-6.5,6.5c0,0.6,0.1,1.3,0.3,1.9
		L430.8,532z"/>
	
		<linearGradient id="SVGID_1_" gradientUnits="userSpaceOnUse" x1="467.3767" y1="416.0792" x2="501.2667" y2="273.1992" gradientTransform="matrix(1 0 0 -1 0 854)">
		<stop  offset="0" style="stop-color:#FFFFFF"/>
		<stop  offset="1" style="stop-color:#D8D8D8"/>
	</linearGradient>
	<path fill="url(#SVGID_1_)" d="M429.1,532h128.3l-23.4-76.1c-1.3-4.2-5.2-7.1-9.6-7.1H410.4c-3.6,0-6.5,2.9-6.5,6.5
		c0,0.6,0.1,1.3,0.3,1.9l22.4,72.9C426.9,531.2,428,532,429.1,532z"/>
	<path opacity="0.45" fill="none" stroke="#D2B6D7" stroke-width="1.37" stroke-miterlimit="10" enable-background="new    " d="
		M495.4,491.7c0.5,6.7-7.4,12.1-17.6,12.1s-18.8-5.4-19.3-12.1s7.4-12.1,17.6-12.1S494.9,485,495.4,491.7z"/>
	<path fill="#D2B6D7" d="M488.6,491.7c0.3,3.7-4.7,6.7-11.2,6.7s-12-3-12.3-6.7s4.7-6.7,11.2-6.7S488.3,488,488.6,491.7z"/>
	<path fill="#8E489B" d="M581.2,328.1c-0.2-1.2-2.8-1.4-5.5-1.1s-9.6,1.2-11,2.3s-1.3,1.9-2.1,2s-0.8-0.7-2.5-1.4s-5.7-0.2-8.3,0.1
		s-5.1,0.9-5,2.1s0.5,3.3,1,3.6s0.5,0.3,2.6,5c1.1,2.6,2.9,4.1,6.3,3.4c4.3-0.9,4.6-5.8,4.9-7.9s0.6-2.4,1.3-2.4s1.1,0.1,1.9,2
		s1.4,6.3,5.8,6.5c5.8,0.3,8.3-1.6,9.1-5.4c1.1-5,0.8-5,1.3-5.5c0.2-0.2,4.3,0.4,4.3,0.4l-0.1-1.5
		C583.8,329.7,582.5,328.9,581.2,328.1z M560.2,338.2c-0.1,2.5-1.4,4.9-4.2,5.2c-2.6,0.3-3.9-1.1-5.3-4.5c-1.2-3-1.3-5.3-0.8-6.1
		s1.9-0.8,5.2-1s4.4-0.3,4.9,1.2C560.3,334.7,560.4,336.4,560.2,338.2z M579,335.4c-0.5,3.6-1.9,5.4-5.5,5.8
		c-5.1,0.6-6.1-1.4-6.9-3.9c-0.6-1.6-0.9-3.3-1-5c0.2-1.5,1.2-1.7,4.5-2.4s7.5-1.4,8.2-0.7S579.5,332.2,579,335.4L579,335.4z"/>
	<path fill="#634706" d="M616,320.1c-0.3-2.6-0.8-5.2-1.4-7.7c-1.6-6.7-6-12.4-12-15.8c-7.8-4.2-18.6-5.1-27.2-2.7
		c-5,1.4-6.8,4-9.4,4c-2-0.1-4.4-1.4-7-2.3c-19.5-7-16.2,12.1-14.1,17.3c0.9,2.3,5.3,4,5.9,5s0.5,5.7,0.9,7.8
		c0.3,1.3,1.2,2.3,2.4,2.8c0,0,0.1-6.1,0.2-7c0.3-2.2,1-4.5,2.9-5.8s4.7-1.6,7-2s13.6,1.7,14.3,2.4c3.6,3.1,4.6,10.2,5.6,14.4
		c0.5,2,1,3.3,1.8,3.2c0.6-5.8,2.6-5.9,6.1-3.9c1.8,1,2.9,4.7,2.9,7.8c0.1,3.7-2,7.7-5.8,8.5c-1.4,0.3,2.8,8.2,4.7,10.1
		c0.6,0.7,1.3,1.3,2,1.8c0.7,0.4,1.5,0.7,2.3,0.9l2.8,0.8c1.2,0.5,2.5,0.6,3.8,0.3c2-0.6,3.1-2.8,4.1-4.7c1.5-3.2,3.3-6.2,4.5-9.5
		C616.2,338.1,617,328.7,616,320.1z"/>
	<path fill="#723E24" d="M79.8,799.2l79.1-189l-12.7-5L74.2,797c-0.7,2-0.1,4,1.4,4.6S79,801.1,79.8,799.2z"/>
	<path opacity="0.37" enable-background="new    " d="M144,611l8.1,3.2L77.7,801.4c0.9-0.5,1.7-1.3,2.1-2.2l79.1-189l-12.7-5
		L144,611z"/>
	<path fill="#723E24" d="M205,798l3.8-204.8h-13.7L199,798c0.1,2.1,1.4,3.8,3,3.8S204.9,800,205,798z"/>
	<path opacity="0.37" enable-background="new    " d="M195.3,598.5h10.2l-3.8,203.1c0.1,0,0.2,0,0.4,0c1.6,0,2.9-1.7,3-3.8
		l3.8-204.8h-13.7L195.3,598.5z"/>
	<path fill="#723E24" d="M324.2,799.2l-79.1-188.9l12.7-5l72,191.8c0.7,2,0.1,4-1.4,4.6S325,801.1,324.2,799.2z"/>
	<g opacity="0.37">
		<path d="M329.8,797l-72-191.8l-12.7,5l1.4,3.5l7.8-3.1L326,801.2c0.7,0.5,1.6,0.6,2.4,0.3C329.9,801,330.5,798.9,329.8,797z"/>
	</g>
	<path fill="#B3B3B3" d="M292.3,609.9c-13.8,11.2-34.3,21.6-86.3,22.6c-68.4,1.3-104.2-6.4-123.7-41.7
		c-32.5-58.9,8.2-249.3,72.2-207.1c53.6,35.3,64.3,147.8,71.4,163.3S325.9,582.6,292.3,609.9z"/>
	<path fill="#CCCCCC" d="M217.9,617.9c-68.4,1.3-104.2-6.4-123.7-41.7C72.1,536,84,434.5,114.1,387.6
		c-38.6,35.8-56.6,158.1-31.8,203.2c19.4,35.3,55.2,43,123.7,41.7c52-1,72.5-11.4,86.3-22.6c4.7-3.8,6.9-7.5,7.2-11.1
		C285.7,608.6,264.4,617,217.9,617.9z"/>
	<path fill="#222222" d="M304,750.2c0.9,5-8.5,18.2,4.1,29.3s41.4,22.8,22.4,23.2s-37.4-4-47.1-8.8s-2-12.3-14-16.1
		c-15.9-5-15.7-6-8-23.3C272,730.8,301.2,734.1,304,750.2z"/>
	<path fill="#333333" d="M322.4,767.1c2.2,4.3,12.8,14.2,27.5,20.8s45.8,9.6,28.5,15.4s-37.4,2.3-47.6,0.6s-20.1-1.9-32.1-1.9
		c-15.9-0.1-16-1.1-13.9-19C287.7,758.4,315.2,753.2,322.4,767.1z"/>
	<path fill="#FFADAD" d="M285.1,757.1l6.2,15.1c0,0,15.2,3.7,22.5-0.2s4.4-7.2,4.4-7.2l-6.4-22.3L285.1,757.1z"/>
	<path fill="#00414E" d="M216.1,555c0,0,65.2,14.2,88.8,20s42,15.8,31,55.2s-29.4,111.4-29.4,111.4h-42l22.1-129.5l-123-14.5
		l-22.7-50.3L216.1,555z"/>
	<path fill="#006176" d="M120.1,555c2.8,20.3-3.2,43.7,28.4,52.9s80.8,9.9,80.8,9.9l49.4,147.9c10.3,1.1,20.7,0,30.6-3.1
		c6.9-2.1,9.4-10.9,9.4-10.9l-44.7-151.2c-3.5-11.8-13-20.9-24.9-24l-75.7-23L120.1,555z"/>
	<path fill="#00414E" d="M131.4,486.9c3.1,7.9,3.8,16.5,1.9,24.8c-3.6,16.5,0.5,17.6,0.5,17.6s22.3,14.2,40.9,19.9
		c13.3,4.1,24.6,3.4,24.3-11.2v-0.2c0-0.9,0-1.7-0.1-2.6c-0.6-33,6.2-34.7,7.9-71.6c1.8-37.9-8.4-59-18.4-68.2s-23.8-9.5-49.6-3.4
		c-19.4,4.6-25.8,9.7-25.6,24.1c0.2,5.9,0.9,11.8,2.1,17.7C118.6,451.8,126.2,473.4,131.4,486.9z"/>
	<path opacity="0.3" enable-background="new    " d="M131.4,486.9c3.1,7.9,3.8,16.5,1.9,24.8c-3.6,16.5,0.5,17.6,0.5,17.6
		s22.3,14.2,40.9,19.9l17.3-1.6l6.9-5.5v-4.3c0-0.9,0-1.7-0.1-2.6c-8.7,0.7-17.5,0.4-26.2-0.7c-8.8-1.1-17.4-3.2-25.7-6.4
		c-4.5-1.7-7.1-6.4-6.3-11.1c1.1-6.5,2.4-15.8,2.4-23s-3.4-19.5-6.2-28.4c-2.1-6.8-2.8-13.9-2.3-21c0.5-8,0.5-16,0-23.9l-13.7-7.5
		l-7.7,2.9c0.2,5.9,0.9,11.8,2.1,17.7C118.6,451.8,126.2,473.4,131.4,486.9z"/>
	<path fill="#FCE09F" d="M193.7,327.6c0,0,1.7,4.8-0.9,8.6l-10.6-14.4l7.4-0.1L193.7,327.6z"/>
	<path fill="#FFB9B0" d="M136,346.6c0.5,18.6,16.5,29.3,16.5,29.3l-1.1,16.9l10.8,7l7.4,4.8l4.2-8.9l0.6-10.9c0.1-2.5,2-4.7,4.5-5.2
		c4.1-1,7.8-3.2,10.5-6.4c0.2-0.3,0.5-0.5,0.7-0.8l0,0c7-9.6,9.7-46.2-14.4-56.6C150.9,305.1,135.5,328,136,346.6z"/>
	<path fill="#F29E9E" d="M162.9,389.8l-0.7,10.1l7.4,4.8l4.2-8.9l0.6-10.9c0.1-2.5,2-4.7,4.5-5.2c4.1-1,7.8-3.2,10.5-6.4
		c0.2-0.3,0.5-0.5,0.7-0.8c-4.7,2.6-9.8,4.1-15.1,4.7C168.5,377.9,163.4,383.2,162.9,389.8z"/>
	<path fill="#FCE09F" d="M161.9,352.4c-0.9,0.4-1.8-1.1-1.8-1.1s-5.2-11.7-7-13.5c-3.2-3.2-10.8-3-11.4,7.1
		c-0.5,7.8,8.7,24.4,11.5,29.2c0.4,0.8,0.2,1.8-0.5,2.4c-0.3,0.2-0.6,0.3-1,0.4h-0.1c-0.4,0-0.9-0.1-1.2-0.4
		c-5.9-5.2-32.1-30.3-11.3-53.9c0,0,16.5,1.1,19,9c1.8,6.2,3.2,12.4,4.3,18.8C162.4,350.3,162.9,351.9,161.9,352.4z"/>
	<path fill="#FCE09F" d="M193.7,327.6c0,0-14.4-11.2-36.3,2.5l-17.9-4.6c0,0-0.8-0.2-0.4-2.9s2.4-29.1,33.8-23.1
		C191,302.8,202,315.3,193.7,327.6z"/>
	<path fill="#8E489B" d="M151.5,385c-2.1,1.4-3.9,3.2-5.2,5.4c2.3,1,4.5,2.2,6.7,3.5c2.8,1.7,16.5,11.4,16.5,11.4l4-8.2
		C173.4,397,159.2,387.2,151.5,385z"/>
	<path fill="#8E489B" d="M173.5,397c0,0,4.8,1.6,6.2,5.2c0,0,2.4-4.7-0.7-13c-1.4-1.3-2.9-2.4-4.6-3.4L173.5,397z"/>
	<path fill="#E5BB98" d="M135.5,545.3c1,1.3,2.1,2.5,3.3,3.6c0.8,0.4,0.9-0.5,0.6-1.1S135.6,544.4,135.5,545.3z"/>
	<path fill="#FCE09F" d="M151.7,376.9h-0.1c-0.4,0-0.9-0.1-1.2-0.4c-5.9-5.2-32.1-30.3-11.3-53.9c-0.6,2.5-0.8,5-0.6,7.5
		C138.5,330.1,125.2,351.5,151.7,376.9z"/>
	<path fill="#FFB9B0" d="M93.6,462.9c0,0-13.9,63.9-7.3,68.8s80.7,5.6,87.5,6.7s35.2,5.7,49.6-7c1.9-1.7-8.8-0.9-11.3-6.5
		s1.3-4.9,0-7.3c-5.1-9-34.3,2-34.3,2s-47.9-8.3-61.8-4.3c8.3-10.1,10.2-47.7,10.2-47.7L93.6,462.9z"/>
	<path fill="#8E489B" d="M89.8,466.1c0,0,9.3-58.6,27-66.5S147,417,140.5,443s-8.2,35.5-8.2,35.5S105.8,481.2,89.8,466.1z"/>
	<polygon fill="#969696" points="80.9,830.1 68.3,830.1 78.3,540.9 103.5,540.9 	"/>
	<polygon opacity="0.2" enable-background="new    " points="77.1,576.8 100.7,576.8 103.5,540.9 78.3,540.9 	"/>
	<polygon fill="#969696" points="817.4,830.1 830,830.1 820,540.9 794.8,540.9 	"/>
	<polygon opacity="0.2" enable-background="new    " points="821.2,576.8 797.6,576.8 794.8,540.9 820,540.9 	"/>
	<path fill="#FFE7DB" d="M45.9,529.8h806.4c1.7,0,3.1,1.4,3.1,3.1v17.6c0,1.7-1.4,3.1-3.1,3.1H45.9c-1.7,0-3.1-1.4-3.1-3.1v-17.6
		C42.8,531.2,44.2,529.8,45.9,529.8z"/>
	
		<linearGradient id="SVGID_00000150790181447353072670000010553769926409115568_" gradientUnits="userSpaceOnUse" x1="449.135" y1="344.93" x2="449.135" y2="259.71" gradientTransform="matrix(1 0 0 -1 0 854)">
		<stop  offset="0" style="stop-color:#FFE7DB"/>
		<stop  offset="0.24" style="stop-color:#FDE4D8"/>
		<stop  offset="0.41" style="stop-color:#F5DBD0"/>
		<stop  offset="0.56" style="stop-color:#E8CBC2"/>
		<stop  offset="0.69" style="stop-color:#D6B5AE"/>
		<stop  offset="0.82" style="stop-color:#BE9994"/>
		<stop  offset="0.94" style="stop-color:#A27674"/>
		<stop  offset="1" style="stop-color:#916262"/>
	</linearGradient>
	<path fill="url(#SVGID_00000150790181447353072670000010553769926409115568_)" d="M43.3,545.7c1.3,4.7,5.5,7.9,10.4,7.9h790.9
		c4.8,0,9.1-3.2,10.4-7.9H43.3z"/>
	<path fill="#808080" d="M315.7,529.8H133.3l0,0V526c0-0.6,0.5-1.2,1.2-1.2h181.1l0,0V529.8L315.7,529.8z"/>
	
		<linearGradient id="SVGID_00000173142117697131776270000006382677784357481144_" gradientUnits="userSpaceOnUse" x1="262.9824" y1="324.18" x2="262.9824" y2="406.612" gradientTransform="matrix(1 0 0 -1 0 854)">
		<stop  offset="0" style="stop-color:#D8D8D8"/>
		<stop  offset="1" style="stop-color:#FFFFFF"/>
	</linearGradient>
	<path fill="url(#SVGID_00000173142117697131776270000006382677784357481144_)" d="M195.4,529.8h123.2l11.9-75.4
		c0.7-3.1-1.4-6.2-4.5-6.9c-0.4-0.1-0.9-0.1-1.3-0.1H215.3c-4,0.2-7.3,3.1-8,7L195.4,529.8z"/>
	<path opacity="0.2" fill="#999999" enable-background="new    " d="M215.3,447.4h3.4c-4,0.2-7.3,3.1-8,7l-11.9,75.4h-3.4l11.9-75.4
		C208,450.5,211.3,447.6,215.3,447.4z"/>
	<path opacity="0.2" fill="#999999" enable-background="new    " d="M250.1,488.6c-1.2,7.5,3.9,13.5,11.3,13.5
		c7.4,0,14.4-6.1,15.5-13.5s-3.9-13.5-11.3-13.5S251.2,481.1,250.1,488.6z"/>
	<polygon fill="#FFE1BD" points="781.4,774.5 783.8,788.8 794.6,788.8 799.3,788 795.9,765.8 	"/>
	<path fill="#00A2C4" d="M797.4,770.4c-1,0.5-2.1,0.9-3.3,1.3c-4.6,1.4-9.3,2.5-14.1,3.1c-13-21.3-46.7-125.2-46.7-125.2
		c-3.1-13.1,16.6,3.7,24.8,3.2c2.6-0.2,5.2,0.2,7.6,1.1c7.8,3.3,19.3,25.5,19.3,25.5s3.5,7.7,7.2,23.5S797.4,770.4,797.4,770.4z"/>
	<path fill="#00829D" d="M797.4,770.4c-1,0.5-2.1,0.9-3.3,1.3c-0.8-6.3-2-16.4-3.8-32.5c-4-36-26.8-77.2-32.2-86.4
		c2.6-0.2,5.2,0.2,7.6,1.1c7.8,3.3,19.3,25.5,19.3,25.5s3.5,7.7,7.2,23.5S797.4,770.4,797.4,770.4z"/>
	<path fill="#391D3E" d="M783,786.7c2.8,0,5.6-0.4,8.3-1.3c2.6-1,5-2.5,7-4.4c0,0,11.5,7,11.5,19.7c0,0.7-0.4,1.3-1.1,1.5
		c0,0-27.7,12.3-37.2,15.7c-5,1.6-10.1,2.9-15.3,4c-0.7,0.2-1.4-0.1-1.6-0.7c-0.5-1.3-0.7-3.5,2.1-5.7c4.3-3.3,9-6,12.2-8.7
		s6.6-10.2,9.2-12.4C781.6,791.6,783,786.7,783,786.7z"/>
	<g>
		<defs>
			<path id="SVGID_00000166637199268820035140000000008275454554191003_" d="M764.9,638.3l42,10l49.6,0.2l51.4-12.9l92,171.4
				l-12.5,51.7c0,0-290.6,20.9-298.4,14.3s-44.1-41.8-49.2-55.6S764.9,638.3,764.9,638.3z"/>
		</defs>
		<clipPath id="SVGID_00000055695750627572428020000006624530638059017109_">
			<use xlink:href="#SVGID_00000166637199268820035140000000008275454554191003_"  overflow="visible"/>
		</clipPath>
		<g clip-path="url(#SVGID_00000055695750627572428020000006624530638059017109_)">
			<path fill="#723E24" d="M840.4,849.6l4-216H830l4,216c0,2.2,1.5,4,3.1,4S840.3,851.8,840.4,849.6z"/>
			<path fill="#723E24" d="M708.3,824.3l83.5-199.3l-13.4-5.3l-76,202.2c-0.8,2.1-0.1,4.2,1.5,4.8S707.5,826.4,708.3,824.3z"/>
			<path fill="#723E24" d="M966.2,824.3L882.7,625l13.4-5.3L972,822c0.8,2.1,0.1,4.2-1.5,4.8S967,826.4,966.2,824.3z"/>
			<g opacity="0.37">
				<path d="M776.1,625.9l8.5,3.4l-78.5,197.4c1-0.5,1.7-1.3,2.2-2.4l83.5-199.3l-13.4-5.3L776.1,625.9z"/>
			</g>
			<g opacity="0.37">
				<path d="M830.2,639.3h10.7l-4,214.3c0.1,0,0.2,0,0.4,0c1.7,0,3.1-1.8,3.2-4l4-216H830L830.2,639.3z"/>
			</g>
			<g opacity="0.37">
				<path d="M972,822l-76-202.2l-13.4,5.3l1.5,3.7l8.3-3.3L968,826.5c0.7,0.5,1.7,0.6,2.5,0.3C972.1,826.2,972.8,824.1,972,822z"/>
			</g>
		</g>
	</g>
	<path fill="#FFFFFF" d="M736,524H603.9l-26.1-82.2c-1.1-3.4,0.8-7,4.2-8.1c0.6-0.2,1.3-0.3,2-0.3h118.6c2.8,0,5.3,1.8,6.1,4.5
		L736,524z"/>
	<path fill="#F2F2F2" d="M733.9,524H607.4l-25.9-80.7c-1.1-3.3,0.8-6.9,4.1-7.9c0.6-0.2,1.3-0.3,2-0.3h113.1c2.8,0,5.2,1.8,6.1,4.4
		L733.9,524z"/>
	<path fill="#CCCCCC" d="M654.5,450.4h-57.6c-0.9,0-1.5-0.7-1.5-1.5c0,0,0,0,0,0l0,0c0-0.9,0.7-1.6,1.5-1.6c0,0,0,0,0,0h57.6
		c0.9,0,1.5,0.7,1.6,1.5c0,0,0,0,0,0l0,0C656.1,449.7,655.4,450.4,654.5,450.4C654.6,450.4,654.5,450.4,654.5,450.4z"/>
	<path fill="#CCCCCC" d="M663.5,457.5h-64.2c-0.9,0-1.5-0.7-1.5-1.5c0,0,0,0,0,0l0,0c0-0.9,0.7-1.5,1.5-1.5c0,0,0,0,0,0h64.2
		c0.9,0,1.5,0.7,1.5,1.5c0,0,0,0,0,0l0,0C665,456.9,664.3,457.5,663.5,457.5z"/>
	<path fill="#CCCCCC" d="M657.5,464.7h-56c-0.9,0-1.6-0.7-1.6-1.6l0,0c0-0.9,0.7-1.6,1.6-1.5h56c0.9,0,1.5,0.7,1.5,1.5l0,0
		C659.1,464,658.4,464.7,657.5,464.7C657.5,464.7,657.5,464.7,657.5,464.7z"/>
	<path fill="#CCCCCC" d="M648.2,471.9h-44.3c-0.9,0-1.6-0.7-1.6-1.5c0,0,0,0,0,0l0,0c0-0.9,0.7-1.6,1.6-1.6h44.3
		c0.9,0,1.6,0.7,1.6,1.6l0,0C649.7,471.2,649,471.9,648.2,471.9C648.2,471.9,648.2,471.9,648.2,471.9z"/>
	<path fill="#CCCCCC" d="M670.4,479.1h-64.2c-0.9,0-1.6-0.7-1.6-1.5c0,0,0,0,0,0l0,0c0-0.9,0.7-1.6,1.5-1.6c0,0,0,0,0,0h64.2
		c0.9,0,1.6,0.7,1.6,1.5c0,0,0,0,0,0l0,0C672,478.4,671.3,479.1,670.4,479.1C670.4,479.1,670.4,479.1,670.4,479.1z"/>
	<path fill="#CCCCCC" d="M664.4,486.3h-55.9c-0.9,0-1.6-0.7-1.6-1.6l0,0c0-0.9,0.7-1.6,1.6-1.5h55.9c0.9,0,1.6,0.7,1.6,1.5l0,0
		C666,485.6,665.3,486.3,664.4,486.3z"/>
	<path fill="#CCCCCC" d="M677.3,500.6h-64.2c-0.9,0-1.5-0.7-1.6-1.5c0,0,0,0,0,0l0,0c0-0.9,0.7-1.5,1.5-1.5c0,0,0,0,0,0h64.2
		c0.9,0,1.5,0.7,1.5,1.5c0,0,0,0,0,0l0,0C678.9,499.9,678.2,500.6,677.3,500.6C677.3,500.6,677.3,500.6,677.3,500.6z"/>
	<path fill="#CCCCCC" d="M679.7,507.8h-64.2c-0.9,0-1.6-0.7-1.6-1.6l0,0c0-0.9,0.7-1.6,1.6-1.5h64.2c0.9,0,1.5,0.7,1.5,1.5l0,0
		C681.2,507.1,680.5,507.8,679.7,507.8z"/>
	<path fill="#CCCCCC" d="M713.8,507.8H693c-1.9,0-3.6-1.3-4.2-3.1L671.5,450c-0.7-2.3,0.6-4.8,2.9-5.6c0.4-0.1,0.9-0.2,1.3-0.2h20.8
		c1.9,0,3.6,1.3,4.2,3.1l17.3,54.7c0.7,2.3-0.6,4.8-2.9,5.6C714.7,507.8,714.2,507.8,713.8,507.8z"/>
	<path fill="#FFFFFF" d="M747.1,530H603.5c-2.3,0-4.2-1.9-4.2-4.2c0,0,0,0,0,0l0,0c0-2.3,1.9-4.2,4.2-4.2l0,0h143.6
		c2.3,0,4.2,1.9,4.2,4.2c0,0,0,0,0,0l0,0C751.3,528.1,749.4,530,747.1,530z"/>
	<path fill="#00829D" d="M788.5,416.4c-1.3,0-2.5-0.7-3.1-1.8l-4.8-8.4c-1-1.7-0.4-3.9,1.4-4.9c0,0,0.1,0,0.1,0l13.3-7
		c1.7-0.9,3.9-0.3,4.8,1.5l4.5,8.3c0.9,1.7,0.3,3.9-1.4,4.9l-13.1,7.1C789.7,416.3,789.1,416.4,788.5,416.4z M797,395.5
		c-0.3,0-0.6,0.1-0.9,0.2l-13.3,7c-0.5,0.2-0.8,0.7-1,1.2c-0.2,0.5-0.1,1,0.2,1.5l0,0l4.8,8.4c0.5,0.9,1.7,1.2,2.6,0.8l13.1-7.1
		c0.5-0.2,0.8-0.7,0.9-1.1c0.1-0.5,0.1-1-0.2-1.5l-4.5-8.3C798.3,395.8,797.7,395.5,797,395.5L797,395.5z"/>
	<path fill="#FFE1BD" d="M734,503.3c-0.9,1.2-1.7,2-1.7,2s-7-5.3-8.9-5.8s-6.1,1-8.4,1.2s-2.5-1.3-2.5-1.3s-9,3.8-10.4,4.1
		s-2.4-0.1-1.5-2.4c0.4-0.8,1-1.6,1.7-2.3l0,0c3.1-3.5,9.4-9,11.7-10.1c2.9-1.4,6.8-3.4,10-2.2s13.5,8.9,13.5,8.9
		C737.6,498,735.6,501.3,734,503.3z"/>
	<path fill="#FFD19F" d="M736.2,495.9l-2.2,7.4c-0.9,1.2-1.7,2-1.7,2s-7-5.3-8.9-5.8s-6.1,1-8.4,1.2s-2.5-1.3-2.5-1.3
		s-9,3.8-10.4,4.1s-2.4-0.1-1.5-2.4c0.4-0.8,1-1.6,1.7-2.3c-0.8,1.1-1.6,2.1-1.1,3.5c0.6,1.6,10.2-3,17.2-7.2c0.1-0.1,0.7-0.3,0.9,0
		s-0.3,0.7-0.4,0.8c-1.2,1.2-7,1.7-5.8,3.5c1.7,2.6,7.7-2.2,10.9-1.1c2.6,1,5.1,2.4,7.4,4.1C731.3,502.5,733.2,496.8,736.2,495.9z"
		/>
	<path fill="#B7135E" d="M731.3,505.2c0,0,34.2,29.9,59.7,32.9s68.7-45.5,68.7-45.5s-2.7-25.8-18.7-22.8s-37.3,41.4-46.6,43.2
		c-9.3,1.8-57.4-18.6-57.4-18.6c-1.2,1-2.2,2.3-3,3.7C732.9,500.4,731.9,502.8,731.3,505.2z"/>
	<path fill="#FFE1BD" d="M847.5,358c-9.3-10.7-23.2-11.9-33.8-10.7c-14,1.5-26.2,11-30.2,24.5c-2,6.6-1.8,13.7,0.6,20.2
		c8.7,24,17.8,39.4,26.3,43.9c3.2,1.7,9.4,0.6,16.1-1.7c0.9-0.3,1.8,0.1,2.3,0.9l2.8,5.2l24.6-5.3c-2-4.5-3.6-9.2-4.8-14
		C854.9,416.4,864.6,377.6,847.5,358z"/>
	<path fill="#552B5D" d="M797.8,392.3c3.1-0.3,6,1.4,7.2,4.2c2,4.8,5.2,11.5,7.6,13.7c0.8,0.5,1.9,0.5,2.7,0
		c0.8-0.4,1.3-1.2,1.2-2.1c-0.2-2.1-1.8-6.6-2.8-9.6c-1.4-3.8,0.3-7.9,4.8-8.9c1.3-0.2,2.7-0.1,4,0.2c7.3,2.2,2.3,13.6,2.1,19.6
		c-0.1,4.2,4.9,13.9,7.2,14.8c7.3,2.9,18.4,0.3,24.2-7s7.1-31.5,3.9-46s-14.8-22.7-18.7-23.6c-1.5-0.4-3-0.5-4.5-0.4
		c-1.2,0.1-2.3-0.3-3.2-1c-3.9-3.4-15.4-11-33.7-3.2c-16.3,6.7-26.7,22.8-26.2,40.4c0.3,6.2,5.1,5.7,8.5,4.7
		c1.9-0.6,3.9-0.1,5.3,1.2C790.4,391.6,794.1,392.7,797.8,392.3z"/>
	<path fill="#B7135E" d="M830.8,444.2c0,0-2.1-2.4-1.3-3.8c1-1.8,11.8-10.3,24.4-9.9c2,0.1,4.4,0.1,6.7,5.2c1.3,2.7,2.3,5.6,2.9,8.5
		H830.8z"/>
	<path fill="#E51875" d="M878.7,650.8c-0.8,0.2-1.6,0.4-2.5,0.5c-10.7,2-28.1,2.2-28.1,2.2c-34.3-0.6-51.6-32.5-57.2-42.1
		c-1.1-1.8-2-3.7-2.7-5.6c2-1,25.2-13.6,24-56.5c-0.2-8.9-0.1-28.8-4.5-36.5c-2.4-4.2-9.7-12.9-14.2-21.9
		c-3.7-7.5-5.6-15.2-1.6-21.2c10.1-14.8,26-22.7,26-22.7s29.2-11.7,54-9c15.8,1.7,29.8,9.1,33.5,28.9
		C915.2,518.1,878.7,650.8,878.7,650.8z"/>
	<path fill="#B7135E" d="M821.8,538.2c4.2,42.2-24.5,68.7-30.8,73.3c-1.1-1.8-2-3.7-2.7-5.6c2-1,23.8-20,24-56.5
		c0-8.9-0.1-28.8-4.5-36.5c-2.4-4.2-9.7-12.9-14.2-21.9l1.9-0.7l11.7-1.9l5.9,4.8C813.1,493.1,819.1,510.8,821.8,538.2z"/>
	<path fill="#B7135E" d="M878.7,650.8c-0.8,0.2-1.6,0.4-2.5,0.5c2.2-11.5,16-83.9,20.5-110.1c8.9-51.8-0.4-78-5.6-87.4
		c-4.2-7.6-12.3-11.6-19.3-15.7c15.8,1.7,29.8,9.1,33.5,28.9C915.2,518.1,878.7,650.8,878.7,650.8z"/>
	<path fill="#FFE1BD" d="M710.5,805.4c-2.6,1-5.4,1.6-8.2,1.6c-5,0-6.5-1.9-6.5-1.9v-11.5l16.6-2.1L710.5,805.4z"/>
	<path fill="#00A2C4" d="M840.8,644.8c-0.1,7.5-2.1,19.4-13.3,22.7c-16.7,5-29,2.2-48.4-1.2c-16.2-2.8-58.9-12-66.7-15
		c-0.7-0.3-1.5,0.1-1.8,0.8c-0.1,0.2-0.1,0.5-0.1,0.8c3.7,18.1,6.7,25.9,9,53c2,22.8-6.7,87.3-6.7,87.3c-1.8,0.5-3.7,1-5.5,1.3
		c-1.1,0.2-2.1,0.3-3.2,0.3c-3.1-0.1-6.2-0.3-9.3-0.8c0,0-17.3-95-19.7-133.6s1.3-41.7,18.8-49.9s95.8-5,95.8-5l0,0
		c0.2,0.7,4.6,12.7,17.6,23.6C815.3,635.7,826.1,641.8,840.8,644.8z"/>
	<path fill="#B7135E" d="M793.2,612.2c-1.3-2.1-2.3-4.3-3.2-6.6l0,0l-2.5-0.1C789.3,607.9,791.2,610.1,793.2,612.2z"/>
	<path opacity="0.38" fill="#00829D" enable-background="new    " d="M830,641.8c-1.6,5.7-5,11.2-12,13.3c-16.7,5-29,2.2-48.3-1.2
		c-16.2-2.8-58.9-11.9-66.7-14.9c-0.7-0.3-1.5,0.1-1.8,0.8c-0.1,0.2-0.1,0.5-0.1,0.8c3.7,18.1,6.7,25.9,9.1,53
		c1.6,17.8,0.9,75.6,0.5,100.4c1.3-0.3,2.2-0.6,2.2-0.6s8.8-64.5,6.7-87.3c-2.4-27.1-5.3-35-9-53c-0.1-0.7,0.3-1.5,1.1-1.6
		c0.3-0.1,0.5,0,0.8,0.1c7.8,3,50.5,12.2,66.7,15c19.3,3.3,31.7,6.2,48.4,1.2c11.2-3.4,13.2-15.3,13.3-22.7
		C837.2,644.1,833.6,643.1,830,641.8z"/>
	<path fill="#391D3E" d="M695.6,803.5c2.6,1,5.4,1.6,8.2,1.7c2.8,0,5.6-0.6,8.1-1.7c0,0,8.3,10.6,3.9,22.5c-0.3,0.6-0.8,1-1.5,1h-56
		c-0.7,0-1.2-0.5-1.3-1.2c0-1.4,0.5-3.6,3.9-4.6c5.2-1.6,10.5-2.5,14.5-3.9s9.7-7.3,13-8.4C692.5,807.5,695.6,803.5,695.6,803.5z"/>
	<path fill="#FFE1BD" d="M670.2,522.8c0,0-5-1.3-7.6-1.8c-1-0.2-2-0.3-2.8-0.4c-1.1-0.1-2.2-0.1-3.3,0.1l-26.8,3.7
		c-0.8,0.1-1.5-0.4-1.6-1.2c-0.2-1,0.2-2.1,1-2.8l2.6-2.2l7.8-6.7c3.9-3.3,6.9-3.9,12.1-4.2c1.9,0.3,3.7,0.6,5.5,1.1
		c5.2,1,6.4,1.6,9.9,2.3c1,0.2,1.9,0.4,2.9,0.5c0.4,0.1,0.8,0.1,1.2,0C672.4,514.9,672,519.1,670.2,522.8z"/>
	<path fill="#F4F4F4" d="M711.1,525.4c0,0-0.1,0-0.2,0c-0.7-0.3-4.9-2-7.2-2.8c-0.8-0.3-1.6-0.5-2.3-0.7c-1.2-0.3-2.4-0.4-3.7-0.4
		h-26.9c-0.8,0-1.5-0.6-1.5-1.5c0-1,0.5-2,1.4-2.5l2.9-1.9c-2.7,2.1-3.2,3.7-1.8,3.8c1.1,0.1,3.7-0.2,10.3-2c0.2,0,0.2,0.2,0.1,0.3
		c-0.8,0.3-1.1,1.2-0.8,1.9c0.3,0.7,1,1.1,1.7,0.9c1.1,0,5.8-0.3,6.9-0.4c4.2-0.2,10.4-0.6,11.5-0.4c2.1,0.4,4,1,5.9,2
		c1.2,0.6,2.2-0.7,2.7-1.9c0.7-2,1.4-4,2.4-5.9c0.4,0.1,0.8,0.2,1.2,0.1C714.3,517.9,713.4,522,711.1,525.4z"/>
	<path fill="#E51875" d="M816.9,460.9c-3.5-2.2-14.3-8.1-28.1,13.4s-24.9,37.7-29.7,40.6s-16.7,0.8-21,0.8s-67-4.9-67-4.9
		s-3,6.5-3.5,12.1c0,0,57.5,15.1,93,15.2s62.7-53.7,63.9-60.2S825.3,466.1,816.9,460.9z"/>
	<path fill="#00829D" d="M782.5,410.7c-0.3,0-0.6-0.2-0.7-0.5c-0.2-0.4,0-0.9,0.3-1.1l30.9-15.8c3.5-1.8,10.7-5.5,16,2.3
		c0.3,0.4,0.2,0.9-0.2,1.1c-0.4,0.3-0.9,0.2-1.1-0.2c0,0,0,0,0,0c-4.1-6.1-9.1-4.2-13.8-1.8l-31,15.9
		C782.7,410.7,782.6,410.7,782.5,410.7z"/>
	<path fill="#FFE1BD" d="M813.5,395.3l3.7,11.9c1.5,1.5,3.9,1.5,5.4,0c0.1-0.1,0.2-0.3,0.3-0.4c2.8-3.2,5.2-14.4,0.1-16.3
		S814.8,391.3,813.5,395.3z"/>
	<path fill="#E6E6E6" d="M953.9,567.8c0-60.2-1.4-102.6-39.5-108.9c-51.8-8.7-92.4,36.2-84.1,122.2c4.8,49.3-15.5,66.2-32.7,75.8
		c-11.1,6.2-32.7,4.9-32.7,4.9s-10-1.2-16.7-1.8c4.2,1.9,92.9,45.7,156.3,13.3C960.7,644.8,953.9,603.2,953.9,567.8z"/>
	<path fill="#CCCCCC" d="M953.9,567.8c0-60.2-1.4-102.6-39.5-108.9c-1.8-0.3-3.6-0.5-5.5-0.7c-41.5,4.1-68.8,47.9-61.5,123
		c4.8,49.3-15.5,66.2-32.7,75.8c-11.1,6.2-32.7,4.9-32.7,4.9l-1.4-0.4c-5.2,0.5-10.5,0.7-15.7,0.4c0,0-10-1.2-16.7-1.8
		c4.2,1.9,92.9,45.7,156.3,13.3C960.7,644.8,953.9,603.2,953.9,567.8z"/>
	<line fill="none" stroke="#C6C6C6" stroke-width="3" stroke-linecap="round" x1="458.1" y1="419.4" x2="458.1" y2="425.4"/>
	<line fill="none" stroke="#C6C6C6" stroke-width="3" stroke-linecap="round" x1="264.7" y1="440.1" x2="264.7" y2="434.1"/>
	<line fill="none" stroke="#C6C6C6" stroke-width="3" stroke-linecap="round" x1="651.7" y1="434.1" x2="651.7" y2="440.1"/>
</g>
<g>
	<path opacity="0.36" fill="#00829D" enable-background="new    " d="M186.3,207.9c0-0.6,0.1-1.2,0.1-1.8
		c0-16.5-13.4-29.8-29.8-29.8c-3,0-6,0.5-8.9,1.4c0-0.1,0-0.2,0-0.3c0-20.4-16.5-36.8-36.9-36.8c-15.8,0-29.8,10.1-34.9,25
		c-13.5-8.1-31-3.7-39.1,9.8c-2.7,4.4-4.1,9.5-4.1,14.7c0,1.8,0.2,3.5,0.5,5.3C17.6,197.6,6.8,212.1,9,227.6
		c2,14.1,14.1,24.5,28.3,24.5H179c12.5,0,22.7-10.2,22.7-22.7C201.7,219.7,195.5,211,186.3,207.9L186.3,207.9z"/>
	<path fill="#99DAE7" d="M177.5,200c0-0.6,0.1-1.2,0.1-1.8c0-16.5-13.4-29.8-29.8-29.8c-3,0-6,0.5-8.9,1.4c0-0.1,0-0.2,0-0.3
		c0-20.4-16.5-36.8-36.9-36.8c-15.8,0-29.8,10.1-34.9,25c-13.5-8.1-31-3.7-39.1,9.9c-2.6,4.4-4,9.4-4,14.6c0,1.8,0.2,3.5,0.5,5.3
		c-15.6,2.3-26.3,16.8-24,32.4c2.1,14,14,24.3,28.2,24.3h141.7c12.5-0.1,22.6-10.3,22.6-22.8C192.8,211.7,186.6,203.1,177.5,200z"/>
	<path fill="none" stroke="#FFFFFF" stroke-width="3" stroke-miterlimit="10" d="M191.6,189.4c0-0.6,0.1-1.2,0.1-1.8
		c0-16.4-13.3-29.8-29.8-29.8c-3,0-6.1,0.5-9,1.4c0-0.1,0-0.2,0-0.3c0-20.4-16.5-36.8-36.9-36.8c-15.8,0-29.8,10.1-34.9,25
		c-13.5-8.1-31-3.7-39.1,9.8c-2.6,4.4-4,9.5-4,14.6c0,1.8,0.2,3.5,0.5,5.3c-15.6,2.3-26.3,16.8-24,32.4c2.1,14,14,24.3,28.2,24.3
		h141.7c12.5,0,22.7-10.2,22.7-22.7C207,201.2,200.8,192.5,191.6,189.4L191.6,189.4z"/>
</g>
<g>
	<path opacity="0.36" fill="#00829D" enable-background="new    " d="M926.8,236.8c0-0.7,0-1.3,0-2v-0.5h-0.4
		c-4.3-24.3-27.4-40.6-51.8-36.4c-0.4,0.1-0.8,0.1-1.2,0.2c-16.4-24.7-49.8-31.5-74.6-15c-13.7,9.1-22.5,24-23.8,40.4
		c-16.2-9.2-36.8-3.4-46,12.8c-2.9,5.1-4.4,10.8-4.4,16.6v0.3c0,18.5,15,33.4,33.4,33.4h116.9c1.3,0,2.5-0.1,3.8-0.1
		c1.2,0.1,2.4,0.1,3.6,0.1c24.6,0.1,44.6-19.8,44.7-44.4C927.1,240.5,927,238.7,926.8,236.8L926.8,236.8z"/>
	<path fill="#99DAE7" d="M917.5,228.5c0-0.6,0-1.3,0-2V226h-0.4c-4.2-24.3-27.4-40.6-51.7-36.4c-0.4,0.1-0.8,0.2-1.3,0.2
		c-16.4-24.8-49.7-31.6-74.5-15.2c-13.8,9.1-22.6,24.1-24,40.6c-16.2-9.1-36.8-3.4-46,12.9c-2.8,5.1-4.3,10.8-4.3,16.6v0.4
		c0,18.5,15,33.4,33.4,33.4h116.9c1.3,0,2.5-0.1,3.8-0.2c1.2,0.1,2.4,0.2,3.6,0.2c24.7,0,44.7-20,44.7-44.6
		C917.8,232,917.7,230.3,917.5,228.5L917.5,228.5z"/>
	<path fill="none" stroke="#FFFFFF" stroke-width="3" stroke-miterlimit="10" d="M903.4,221.4c0-0.6,0-1.3,0-2v-0.5H903
		c-4.2-24.3-27.4-40.6-51.7-36.4c-0.4,0.1-0.8,0.2-1.3,0.2c-16.4-24.8-49.7-31.6-74.5-15.2c-13.8,9.1-22.6,24.1-24,40.6
		c-16.2-9.1-36.8-3.4-46,12.9c-2.8,5.1-4.3,10.8-4.3,16.6v0.3c0,18.5,15,33.4,33.4,33.4h116.9c1.3,0,2.5-0.1,3.8-0.2
		c1.2,0.1,2.4,0.2,3.6,0.2c24.7,0,44.7-20,44.7-44.6C903.7,224.9,903.6,223.1,903.4,221.4L903.4,221.4z"/>
</g>
<g>
	<path opacity="0.36" fill="#C68E0B" enable-background="new    " d="M270.2,175c0,25.7,20.9,46.6,46.6,46.6H600
		c34.6-0.4,62.3-28.8,61.9-63.4c-0.4-34-27.9-61.4-61.9-61.9h-0.1c-1.6-46.4-40.4-82.7-86.8-81.1c-33.5,1.1-63.2,22.1-75.4,53.4
		c-38.1-14.9-81.1,4-95.9,42.2c-2.8,7.1-4.4,14.7-4.9,22.3c-23.2-11.1-51-1.3-62.1,21.8C271.8,161.1,270.2,168,270.2,175z"/>
	<path fill="#FCE09F" d="M253.6,159.7c0,25.7,20.9,46.6,46.6,46.6h283.1c34.6,0.4,63-27.3,63.4-61.9c0.4-34.6-27.3-63-61.9-63.4
		c-0.5,0-1.1,0-1.6,0h-0.1c-1.6-46.4-40.5-82.7-86.8-81.1c-33.5,1.1-63.1,22.1-75.3,53.3c-38.1-14.9-81.1,4-95.9,42.2
		c-2.8,7.1-4.4,14.7-4.9,22.3c-23.2-11.1-51-1.3-62.1,21.8C255.1,145.8,253.6,152.7,253.6,159.7L253.6,159.7z"/>
	<g id="nectar-symbol">
		<g id="g32">
			<polygon id="polygon28" fill="#F8B20E" points="514.9,109.8 530.4,82.6 514.9,55.4 483.9,55.4 468.4,82.6 483.9,109.8 			"/>
			<polygon id="polygon30" fill="#F8B20E" points="514.9,170.2 530.4,143 514.9,115.8 483.9,115.8 468.4,143 483.9,170.2 			"/>
		</g>
		<polygon id="polygon34" fill="#F8B20E" points="463.4,140 478.9,112.8 463.4,85.6 432.3,85.6 416.8,112.8 432.3,140 		"/>
	</g>
</g>
</svg>
