<svg xmlns="http://www.w3.org/2000/svg" xmlns:xlink="http://www.w3.org/1999/xlink" viewBox="0 0 972.31 853.58"><defs><linearGradient id="linear-gradient" x1="467.38" y1="437.92" x2="501.27" y2="580.8" gradientUnits="userSpaceOnUse"><stop offset="0" stop-color="#fff"/><stop offset="1" stop-color="#d8d8d8"/></linearGradient><linearGradient id="linear-gradient-2" x1="449.14" y1="509.07" x2="449.14" y2="594.29" gradientUnits="userSpaceOnUse"><stop offset="0" stop-color="#ffe7db"/><stop offset="0.24" stop-color="#fde4d8"/><stop offset="0.41" stop-color="#f5dbd0"/><stop offset="0.56" stop-color="#e8cbc2"/><stop offset="0.69" stop-color="#d6b5ae"/><stop offset="0.82" stop-color="#be9994"/><stop offset="0.94" stop-color="#a27674"/><stop offset="1" stop-color="#916262"/></linearGradient><linearGradient id="linear-gradient-3" x1="262.96" y1="529.82" x2="262.96" y2="447.39" gradientUnits="userSpaceOnUse"><stop offset="0" stop-color="#d8d8d8"/><stop offset="1" stop-color="#fff"/></linearGradient><clipPath id="clip-path"><path d="M764.93,638.32l42,10,49.64.23,51.38-12.94L1000,807l-12.5,51.73s-290.62,20.92-298.37,14.35-44.11-41.85-49.24-55.6S764.93,638.32,764.93,638.32Z" fill="none"/></clipPath></defs><g style="isolation:isolate"><g id="Layer_2" data-name="Layer 2"><g id="Layer_1-2" data-name="Layer 1"><path d="M681.2,799.16,602.07,610.21l12.67-5,72,191.78c.72,1.95.1,4-1.39,4.6S682,801.08,681.2,799.16Z" fill="#723e24"/><path d="M616.94,611l-8.06,3.2L683.26,801.4a4.33,4.33,0,0,1-2.06-2.24L602.07,610.21l12.67-5Z" opacity="0.37"/><path d="M556,798l-3.83-204.82h13.63L562,798c-.05,2.08-1.38,3.76-3,3.76S556,800,556,798Z" fill="#723e24"/><path d="M565.69,598.54H555.53l3.8,203.13a2.08,2.08,0,0,1-.36.05c-1.6,0-2.93-1.68-3-3.76l-3.83-204.82h13.63Z" opacity="0.37"/><path d="M445.48,787.12l79.13-189-12.67-5-72,191.78c-.72,2-.1,4,1.39,4.6S444.67,789,445.48,787.12Z" fill="#723e24"/><g opacity="0.37"><path d="M439.93,784.92l72-191.78,12.67,5-1.46,3.48-7.83-3.11-71.6,190.67a2.7,2.7,0,0,1-2.4.31C439.83,788.93,439.21,786.87,439.93,784.92Z"/></g><path d="M468.62,609.87c13.82,11.24,34.29,21.59,86.3,22.62,68.42,1.34,104.23-6.42,123.67-41.7,32.46-58.92-8.16-249.29-72.24-207.12C552.79,418.92,542.06,531.46,535,547S435.09,582.59,468.62,609.87Z" fill="#b3b3b3"/><path d="M543.06,617.91c68.42,1.35,104.23-6.42,123.67-41.7C688.89,536,677,434.54,646.84,387.59c38.6,35.78,56.62,158.06,31.75,203.2-19.44,35.28-55.25,43-123.67,41.7-52-1-72.48-11.38-86.3-22.62-4.71-3.83-6.92-7.51-7.24-11.06C475.25,608.61,496.53,617,543.06,617.91Z" fill="#ccc"/><path d="M419.81,420s-2.63-5.15-4.22-8.1c-3.89-7.2-11.47-10.2-14.31-12.53s-11.93-8.55-14.67-9.31c-1.89-.52-18.14-5.23-16.82-10.14.77-2.88,21.12,1.64,24,3.07,0,0,.88-4.92,7.52-.87,4.3,2.62,9.52,3,13.57,6.44,2.67,2.24,5.19,4.74,6.47,9.39,1.15,4.19,7,11.16,7,11.16" fill="#ffb9b0"/><path d="M603.55,354.94c.39,7.55-.15,20.7,2,22.65s9.14,1.65,9.14,1.65-25,31.54-27.18,29.8-31.73-25.77-25.1-27,13.12-1,12.93-4.41-.38-6.87-.56-10.3" fill="#ffb9b0"/><path d="M632,523.39s-48.67,5.52-59.87,5.76-10.65-5.62-10.65-5.62c-.57-12.34-2.66-41.4-5-51.25-2.16-9.2-3.12-12.59-5-21.33-4.18-19.42-4-23.13-8.43-47.1l29.07-23.37s3,8.94,15.19,9.1c16.29.2,21.36-11.2,21.36-11.2l39.65,26.32,3.72,64-4.74,52.74" fill="#f9c13e"/><path d="M604.1,348.1a82.58,82.58,0,0,1-3.43,11.19c-2.57,6.68-6.36,9.08-13.43,9.25l-14.9.35c-3.81.09-8.56.22-11.64-2.45s-3.12-7.12-3.79-10.8q-1.3-7-2.12-14.18a210.12,210.12,0,0,1-1.31-28,19.62,19.62,0,0,1,.33-3.83,2.73,2.73,0,0,1,.64-1.41,3.14,3.14,0,0,1,1.79-.69,152.67,152.67,0,0,1,28.17-1.81c6.66.19,13.71,1,19,5s7.82,10.76,10.08,17.06c.37,1,.64,2.36-.24,3" fill="#ffb9b0"/><path d="M461.33,748.89s1.84,11,3.3,14.74,13.78.29,14.6-2.14-3.88-20.29-3.88-20.29" fill="#ed9c80"/><path d="M483.52,764.6c1.06,4,2.41,11.82,2.41,11.82l-12.32,5.37-2-1.9a23,23,0,0,1-6.83,5.45,51.54,51.54,0,0,1-11.93,3.3c-10.75,1.16-23.45.15-24.08-1.34-2.67-6.22,11.59-7.9,14.43-8.64,8.13-2.14,17.43-10.06,18.29-14.56.63-3.26-.18-3.84,1.65-3.74a4.34,4.34,0,0,1,3.08,1.45,7.76,7.76,0,0,0,8.75,2,9.31,9.31,0,0,0,4.37-3.63S482.45,760.54,483.52,764.6Z" fill="#00414e"/><path d="M515.78,605.28c-19.26,3.79-43.44,4.06-62.89,1.49,2.72,7.8,9.39,17.8,11.93,28.78,8.39,36.27,11.3,85,13.43,115.14,0,0-4,7.74-16.94,1.85-19.28-47.64-53-144.19-52.65-165.13.4-26.67,66.95-33.11,115.73-39.68" fill="#552b5d"/><path d="M600.79,551.89c15.34,11.2-85,53.39-85,53.39a166.65,166.65,0,0,1-32.9,3.14,24,24,0,0,1-2.44-6.22c-.59-2.92-.28-6-.79-8.88-1-5.69-5.08-10.51-10-13.51s-10.69-4.39-16.4-5.31c-13.57-2.19-37.26-.66-37.26-.66,30.16-22.23,91.87-25.14,120.62-27C542.09,555.94,598.59,550.29,600.79,551.89Z" fill="#391d3e"/><path d="M493.14,774.24s-.1,11.14.69,15.09,13.53,2.68,14.75.43-.3-20.66-.3-20.66" fill="#ed9c80"/><path d="M512.27,793.56c.34,4.17.32,12.06.32,12.06l-13.06,3.15-1.66-2.22a22.75,22.75,0,0,1-7.68,4.18,50.92,50.92,0,0,1-12.31,1.19c-10.79-.72-25.75-3.89-26.12-5.47-1.54-6.59,12.8-5.77,15.71-6,8.38-.7,21.54-6.91,23.17-11.19,1.19-3.11.49-3.81,2.27-3.4a4.35,4.35,0,0,1,2.78,2,7.77,7.77,0,0,0,8.27,3.52,9.37,9.37,0,0,0,4.93-2.82S511.92,789.38,512.27,793.56Z" fill="#00414e"/><path d="M634.26,549.68a621.79,621.79,0,0,1-68,2.16c-8.68,0-74.35,12.33-80.63,23.46-10.34,18.3,6.73,125.29,5.15,201.88,0,0,7.88,6.58,21.8.4C516.05,740,538.28,651.19,523,609.75c36.21,4.81,65.42,9.58,98.33-1.33,7.7-2.55,13.47-8,16.93-17.95S639.87,558.61,634.26,549.68Z" fill="#552b5d"/><path d="M572.13,380.48s-7,.38-8.31.49a64.3,64.3,0,0,0-17.18,3.25c-7.89,2.92-13.45,10.26-19.87,16-6.18,5.53-38.21,36.05-44.19,37.17s-58.41-34.81-58.41-34.81l-12.8,12.8S468.27,468,485.24,468c8.23,0,53.66-23.87,68.2-33.16Z" fill="#f9c13e"/><path d="M485.37,457.94c-11.69.67-65.3-40.28-71.52-45.05l-2.48,2.48S468.27,468,485.24,468c6.86,0,39.54-16.56,58.65-27.47l5-2.87-3-17.68S497.79,457.24,485.37,457.94Z" fill="#f8b20e" opacity="0.25" style="mix-blend-mode:multiply"/><g opacity="0.25" style="mix-blend-mode:multiply"><path d="M629.43,417.18c-6.49,29.31-7.63,52.25-9.46,73.21-22.77,8.83-38.73,21.17-61,31.09,0,0-10.89-2.11-12.74,4.52-1.07,3.83,19.56,2.38,19.56,2.38,20.64.1,76.11-10.49,79.79-11.5S660,446.67,660.42,409.11c.06-5.33-.13-11.12-3.46-15.28a20.09,20.09,0,0,0-6.72-5c-14.52-7.42-25.28-9.45-41.56-10.48" fill="#f8b20e"/></g><path d="M568.74,523.41c-2.45-3.08-6.91-3.53-10.84-3.43a79.06,79.06,0,0,0-8.7.69c-1.32.18-2.83.49-3,1.92s6.38,0,9.8,1a171.43,171.43,0,0,1-20.14.55,5.65,5.65,0,0,0-2.32.24,1.92,1.92,0,0,0-1.31,1.76,2.37,2.37,0,0,0,.93,1.53c1.87,1.69,4.44,2.36,6.92,2.8,10.28,1.79,21.07,1.48,30.62-2.71" fill="#ffb9b0"/><path d="M628,416.63c-.53,31.34-2.76,45.68-2.15,77-15.73,3.36-42.3,16.7-64.57,26.62,0,0,.69,7.49,2.75,11.23,1.7.62,77.91-15.87,83.75-21.25,5.25-4.84,12.2-63.57,12.63-101.13.06-5.33-.13-11.12-3.46-15.28a20.09,20.09,0,0,0-6.72-5c-14.52-7.42-25.28-9.45-41.56-10.48" fill="#f9c13e"/><path d="M430.77,532H561l-23.36-76.14a10,10,0,0,0-9.57-7.08H414a6.5,6.5,0,0,0-6.21,8.4Z" fill="#ccc"/><path d="M429.13,532h128.3l-23.36-76.14a10,10,0,0,0-9.57-7.08H410.43a6.5,6.5,0,0,0-6.21,8.4l22.38,72.94A2.65,2.65,0,0,0,429.13,532Z" fill="url(#linear-gradient)"/><path d="M495.35,491.7c.46,6.68-7.43,12.09-17.63,12.09s-18.84-5.41-19.31-12.09,7.42-12.09,17.62-12.09S494.88,485,495.35,491.7Z" fill="none" stroke="#d2b6d7" stroke-miterlimit="10" stroke-width="1.37" opacity="0.45"/><path d="M488.6,491.7c.3,3.72-4.71,6.73-11.19,6.73s-12-3-12.26-6.73,4.71-6.73,11.19-6.73S488.31,488,488.6,491.7Z" fill="#d2b6d7"/><path d="M581.16,328.07c-.24-1.18-2.85-1.41-5.46-1.08s-9.58,1.21-11,2.32-1.35,1.92-2.11,2-.8-.7-2.47-1.42-5.68-.22-8.29.11-5.1.9-5.05,2.1.51,3.28,1.05,3.61.53.27,2.59,5c1.14,2.64,2.91,4.15,6.29,3.41,4.3-.93,4.57-5.83,4.9-7.87s.64-2.35,1.29-2.44,1.11.13,1.93,2,1.43,6.28,5.84,6.53c5.76.32,8.26-1.65,9.06-5.35,1.08-5,.84-5,1.27-5.48.2-.21,4.31.36,4.31.36l-.09-1.5A32.87,32.87,0,0,1,581.16,328.07Zm-20.94,10.09c-.13,2.55-1.41,4.9-4.25,5.25-2.64.34-3.86-1.07-5.29-4.45-1.24-2.95-1.3-5.3-.85-6.11s1.87-.79,5.16-1,4.38-.28,4.91,1.17A18.16,18.16,0,0,1,560.22,338.16Zm18.8-2.77c-.55,3.64-1.88,5.38-5.5,5.82-5.14.61-6.12-1.41-6.88-3.86a17.89,17.89,0,0,1-1-5.05c.16-1.53,1.23-1.74,4.47-2.35s7.55-1.36,8.19-.69S579.49,332.23,579,335.39Z" fill="#8e489b"/><path d="M616,320.06a56.7,56.7,0,0,0-1.43-7.72,24.68,24.68,0,0,0-12-15.78c-7.85-4.24-18.63-5.12-27.23-2.71-5,1.4-6.83,4-9.4,3.95-2-.06-4.42-1.38-7-2.3-19.48-7-16.21,12.07-14.13,17.31.92,2.31,5.33,4,5.92,5s.52,5.68.9,7.76A4.13,4.13,0,0,0,554,328.4s.11-6.14.21-7c.26-2.19,1-4.46,2.88-5.75s4.7-1.57,7-2,13.59,1.73,14.34,2.37c3.64,3.12,4.57,10.24,5.6,14.43.47,2,1,3.27,1.76,3.24.61-5.76,2.61-5.91,6.06-3.94,1.84,1.05,2.87,4.7,2.93,7.79.07,3.67-2,7.7-5.81,8.52-1.38.29,2.77,8.16,4.69,10.12a10.53,10.53,0,0,0,2,1.79,9,9,0,0,0,2.34.86l2.78.76a7.3,7.3,0,0,0,3.83.33c2.05-.58,3.14-2.76,4.07-4.68,1.52-3.16,3.27-6.22,4.51-9.5C616.19,338.08,617,328.7,616,320.06Z" fill="#634706"/><path d="M79.76,799.16l79.13-188.95-12.67-5L74.21,797c-.72,1.95-.1,4,1.39,4.6S79,801.08,79.76,799.16Z" fill="#723e24"/><path d="M144,611l8.06,3.2L77.7,801.4a4.33,4.33,0,0,0,2.06-2.24l79.13-188.95-12.67-5Z" opacity="0.37"/><path d="M205,798l3.83-204.82H195.17L199,798c.05,2.08,1.38,3.76,3,3.76S204.92,800,205,798Z" fill="#723e24"/><path d="M195.27,598.54h10.16l-3.8,203.13a2.08,2.08,0,0,0,.36.05c1.6,0,2.93-1.68,3-3.76l3.83-204.82H195.17Z" opacity="0.37"/><path d="M324.22,799.16,245.09,610.21l12.66-5,72,191.78c.72,1.95.1,4-1.38,4.6S325,801.08,324.22,799.16Z" fill="#723e24"/><g opacity="0.37"><path d="M329.76,797l-72-191.78-12.66,5,1.45,3.48,7.84-3.11L326,801.25a2.72,2.72,0,0,0,2.41.31C329.86,801,330.48,798.91,329.76,797Z"/></g><path d="M292.34,609.87c-13.82,11.24-34.29,21.59-86.3,22.62-68.42,1.34-104.23-6.42-123.67-41.7-32.46-58.92,8.16-249.29,72.24-207.12C208.17,418.92,218.9,531.46,226,547S325.87,582.59,292.34,609.87Z" fill="#b3b3b3"/><path d="M217.9,617.91c-68.42,1.35-104.23-6.42-123.67-41.7C72.07,536,84,434.54,114.12,387.59c-38.6,35.78-56.62,158.06-31.75,203.2,19.44,35.28,55.25,43,123.67,41.7,52-1,72.48-11.38,86.3-22.62,4.71-3.83,6.92-7.51,7.24-11.06C285.71,608.61,264.43,617,217.9,617.91Z" fill="#ccc"/><path d="M304,750.2c.89,5-8.55,18.18,4.11,29.27s41.43,22.77,22.37,23.21-37.35-4-47.07-8.77-1.95-12.33-14-16.12c-15.85-5-15.67-6-8-23.27C272,730.79,301.19,734.07,304,750.2Z" fill="#222"/><path d="M322.4,767.07c2.21,4.3,12.8,14.25,27.49,20.81s45.77,9.64,28.49,15.41-37.42,2.27-47.63.64-20.09-1.87-32.13-1.94c-15.88-.11-16-1.09-13.86-19C287.7,758.36,315.25,753.15,322.4,767.07Z" fill="#333"/><path d="M285.06,757.11l6.16,15.08s15.19,3.7,22.46-.16,4.36-7.17,4.36-7.17l-6.37-22.35Z" fill="#ffadad"/><path d="M216.07,555s65.17,14.19,88.82,20,42.05,15.77,31,55.19-29.43,111.43-29.43,111.43H264.42L286.49,612.1l-123-14.49-22.66-50.28Z" fill="#00414e"/><path d="M120.06,555c2.8,20.32-3.16,43.7,28.38,52.86s80.77,9.86,80.77,9.86l49.36,147.91a75.85,75.85,0,0,0,30.59-3.13c6.92-2.13,9.4-10.93,9.4-10.93L273.89,600.4a35,35,0,0,0-24.91-24l-75.73-23Z" fill="#006176"/><path d="M131.39,486.9a43,43,0,0,1,1.93,24.83c-3.65,16.46.51,17.57.51,17.57s22.3,14.16,40.86,19.94C188,553.38,199.32,552.68,199,538v-.2c0-.89,0-1.74-.06-2.58-.63-33,6.25-34.67,7.94-71.62,1.75-37.9-8.38-59-18.41-68.21s-23.77-9.49-49.57-3.39c-19.39,4.57-25.77,9.71-25.62,24.06a114.07,114.07,0,0,0,2.09,17.66C118.56,451.77,126.2,473.44,131.39,486.9Z" fill="#00414e"/><path d="M131.39,486.9a43,43,0,0,1,1.93,24.83c-3.65,16.46.51,17.57.51,17.57s22.3,14.16,40.86,19.94L192,547.6l6.94-5.45,0-4.35c0-.89,0-1.74-.06-2.58a128.38,128.38,0,0,1-26.18-.68,108.18,108.18,0,0,1-25.67-6.43A10,10,0,0,1,140.77,517c1.12-6.49,2.45-15.79,2.4-23s-3.42-19.55-6.17-28.4a57.36,57.36,0,0,1-2.31-21,187.18,187.18,0,0,0,0-23.93l-13.74-7.45-7.66,2.86a114.07,114.07,0,0,0,2.09,17.66C118.56,451.77,126.2,473.44,131.39,486.9Z" opacity="0.3"/><path d="M193.73,327.59s1.72,4.81-.88,8.63l-10.64-14.4,7.42-.07Z" fill="#fce09f"/><path d="M136,346.64c.47,18.57,16.49,29.34,16.49,29.34l-1.07,16.9,10.81,7,7.42,4.8,4.25-8.89.59-10.9a5.61,5.61,0,0,1,4.46-5.18,20.49,20.49,0,0,0,10.54-6.38,6.22,6.22,0,0,0,.67-.83h0c7-9.57,9.68-46.22-14.37-56.63C150.94,305.1,135.47,328,136,346.64Z" fill="#ffb9b0"/><path d="M162.91,389.75l-.73,10.14,7.42,4.8,4.25-8.89.59-10.9a5.61,5.61,0,0,1,4.46-5.18,20.49,20.49,0,0,0,10.54-6.38,6.22,6.22,0,0,0,.67-.83A39.87,39.87,0,0,1,175,377.19,13.62,13.62,0,0,0,162.91,389.75Z" fill="#f29e9e"/><path d="M161.88,352.36c-.94.39-1.83-1.07-1.83-1.07s-5.22-11.7-7-13.5c-3.21-3.25-10.77-3-11.37,7.09-.47,7.78,8.72,24.36,11.54,29.23a1.87,1.87,0,0,1-.47,2.35,2.37,2.37,0,0,1-1,.39h-.13a1.78,1.78,0,0,1-1.19-.43c-5.94-5.21-32.09-30.3-11.33-53.88,0,0,16.5,1.07,19,9a166.82,166.82,0,0,1,4.32,18.76S162.86,351.94,161.88,352.36Z" fill="#fce09f"/><path d="M193.73,327.59s-14.43-11.25-36.35,2.46l-17.95-4.58s-.76-.25-.36-2.94,2.38-29.07,33.82-23.14C191,302.8,202,315.33,193.73,327.59Z" fill="#fce09f"/><path d="M151.5,385a17.39,17.39,0,0,0-5.21,5.36,68.83,68.83,0,0,1,6.68,3.5c2.83,1.73,16.48,11.37,16.48,11.37l4-8.24S159.21,387.16,151.5,385Z" fill="#8e489b"/><path d="M173.46,397s4.77,1.63,6.24,5.2c0,0,2.44-4.68-.68-13a21.92,21.92,0,0,0-4.63-3.36Z" fill="#8e489b"/><path d="M135.52,545.29a28.25,28.25,0,0,0,3.29,3.59c.75.42.88-.46.59-1.08S135.63,544.44,135.52,545.29Z" fill="#e5bb98"/><path d="M151.71,376.85h-.13a1.78,1.78,0,0,1-1.19-.43c-5.94-5.21-32.09-30.3-11.33-53.88a24.34,24.34,0,0,0-.59,7.52S125.22,351.47,151.71,376.85Z" fill="#fce09f"/><path d="M93.61,462.85s-13.89,63.9-7.35,68.78,80.66,5.61,87.55,6.72,35.16,5.69,49.6-7c1.87-1.65-8.78-.93-11.3-6.49s1.33-4.92,0-7.26c-5.12-9-34.35,1.95-34.35,1.95S129.9,511.24,116,515.2c8.33-10.08,10.23-47.67,10.23-47.67Z" fill="#ffb9b0"/><path d="M89.81,466.13s9.3-58.6,27-66.49S147,417.05,140.51,443s-8.2,35.53-8.2,35.53S105.77,481.22,89.81,466.13Z" fill="#8e489b"/><polygon points="80.92 830.08 68.3 830.08 78.29 540.86 103.52 540.86 80.92 830.08" fill="#969696"/><polygon points="77.05 576.75 100.71 576.75 103.52 540.86 78.29 540.86 77.05 576.75" opacity="0.2" style="mix-blend-mode:multiply"/><polygon points="817.36 830.08 829.97 830.08 819.99 540.86 794.76 540.86 817.36 830.08" fill="#969696"/><polygon points="821.23 576.75 797.56 576.75 794.76 540.86 819.99 540.86 821.23 576.75" opacity="0.2" style="mix-blend-mode:multiply"/><rect x="42.85" y="529.82" width="812.57" height="23.8" rx="3.08" fill="#ffe7db"/><path d="M43.31,545.72a10.81,10.81,0,0,0,10.39,7.9H844.57a10.81,10.81,0,0,0,10.39-7.9Z" fill="url(#linear-gradient-2)"/><path d="M133.35,524.83H315.67a0,0,0,0,1,0,0v3.82a1.17,1.17,0,0,1-1.17,1.17H133.35a0,0,0,0,1,0,0v-5A0,0,0,0,1,133.35,524.83Z" transform="translate(449.02 1054.65) rotate(180)" fill="gray"/><path d="M195.37,529.82H318.61l11.86-75.43a5.81,5.81,0,0,0-5.84-7H215.27a8.48,8.48,0,0,0-8,7Z" fill="url(#linear-gradient-3)"/><path d="M215.27,447.39h3.35a8.48,8.48,0,0,0-8,7l-11.86,75.43h-3.35l11.86-75.43A8.48,8.48,0,0,1,215.27,447.39Z" fill="#999" opacity="0.2"/><path d="M250.05,488.61c-1.17,7.47,3.88,13.53,11.29,13.53s14.37-6.06,15.55-13.53S273,475.08,265.6,475.08,251.23,481.13,250.05,488.61Z" fill="#999" opacity="0.2"/><polygon points="781.38 774.53 783.76 788.78 794.63 788.78 799.31 787.98 795.89 765.82 781.38 774.53" fill="#ffe1bd"/><path d="M797.37,770.44c-1,.48-2.14.9-3.28,1.3A90.67,90.67,0,0,1,780,774.86c-13-21.33-46.73-125.21-46.73-125.21-3.1-13.12,16.6,3.68,24.81,3.18a17.4,17.4,0,0,1,7.56,1.1c7.84,3.32,19.34,25.51,19.34,25.51s3.51,7.66,7.17,23.5S797.37,770.44,797.37,770.44Z" fill="#00a2c4"/><path d="M797.37,770.44c-1,.48-2.14.9-3.28,1.3-.82-6.32-2-16.4-3.84-32.47-4-36-26.85-77.24-32.17-86.44a17.4,17.4,0,0,1,7.56,1.1c7.84,3.32,19.34,25.51,19.34,25.51s3.51,7.66,7.17,23.5S797.37,770.44,797.37,770.44Z" fill="#00829d"/><path d="M783.05,786.71a26.35,26.35,0,0,0,8.31-1.28,19.67,19.67,0,0,0,7-4.43s11.54,7,11.53,19.7a1.61,1.61,0,0,1-1.06,1.48s-27.67,12.3-37.19,15.66a142,142,0,0,1-15.27,3.95,1.33,1.33,0,0,1-1.63-.73c-.5-1.29-.74-3.54,2.08-5.7,4.29-3.29,9-6,12.23-8.7s6.59-10.25,9.22-12.38C781.61,791.56,783.05,786.71,783.05,786.71Z" fill="#391d3e"/><g clip-path="url(#clip-path)"><path d="M840.37,849.61l4-216H830l4,216c0,2.19,1.45,4,3.14,4S840.32,851.8,840.37,849.61Z" fill="#723e24"/><path d="M708.3,824.34l83.47-199.29-13.36-5.3L702.46,822c-.77,2.06-.11,4.23,1.46,4.85S707.45,826.36,708.3,824.34Z" fill="#723e24"/><path d="M966.15,824.34,882.68,625.05l13.36-5.3L972,822c.77,2.06.11,4.23-1.46,4.85S967,826.36,966.15,824.34Z" fill="#723e24"/><g opacity="0.37"><path d="M776.09,625.92l8.5,3.38L706.14,826.71a4.59,4.59,0,0,0,2.16-2.37l83.47-199.29-13.36-5.3Z"/></g><g opacity="0.37"><path d="M830.15,639.27h10.7l-4,214.26a2.35,2.35,0,0,0,.37.05c1.69,0,3.1-1.78,3.15-4l4-216H830Z"/></g><g opacity="0.37"><path d="M972,822,896,619.75l-13.36,5.3,1.54,3.66,8.26-3.28L968,826.55a2.85,2.85,0,0,0,2.53.32C972.1,826.25,972.76,824.08,972,822Z"/></g></g><path d="M736,524H603.94L577.8,441.8a6.41,6.41,0,0,1,6.11-8.36H702.5a6.42,6.42,0,0,1,6.12,4.47Z" fill="#fff"/><path d="M733.86,524H607.42l-25.89-80.67a6.3,6.3,0,0,1,6.05-8.21h113.1a6.36,6.36,0,0,1,6.06,4.39Z" fill="#f2f2f2"/><path d="M654.54,450.36H596.93a1.54,1.54,0,0,1-1.55-1.55h0a1.55,1.55,0,0,1,1.55-1.56h57.61a1.55,1.55,0,0,1,1.55,1.56h0A1.54,1.54,0,0,1,654.54,450.36Z" fill="#ccc"/><path d="M663.46,457.54H599.22a1.54,1.54,0,0,1-1.55-1.55h0a1.54,1.54,0,0,1,1.55-1.55h64.24A1.54,1.54,0,0,1,665,456h0A1.54,1.54,0,0,1,663.46,457.54Z" fill="#ccc"/><path d="M657.51,464.73h-56a1.56,1.56,0,0,1-1.56-1.56h0a1.56,1.56,0,0,1,1.56-1.55h56a1.55,1.55,0,0,1,1.55,1.55h0A1.55,1.55,0,0,1,657.51,464.73Z" fill="#ccc"/><path d="M648.18,471.91H603.84a1.55,1.55,0,0,1-1.56-1.55h0a1.56,1.56,0,0,1,1.56-1.56h44.34a1.56,1.56,0,0,1,1.56,1.56h0A1.55,1.55,0,0,1,648.18,471.91Z" fill="#ccc"/><path d="M670.42,479.09H606.19a1.55,1.55,0,0,1-1.56-1.55h0a1.55,1.55,0,0,1,1.56-1.55h64.23a1.55,1.55,0,0,1,1.56,1.55h0A1.55,1.55,0,0,1,670.42,479.09Z" fill="#ccc"/><path d="M664.43,486.28H608.49a1.56,1.56,0,0,1-1.56-1.56h0a1.56,1.56,0,0,1,1.56-1.55h55.94a1.56,1.56,0,0,1,1.56,1.55h0A1.56,1.56,0,0,1,664.43,486.28Z" fill="#ccc"/><path d="M677.31,500.65H613.07a1.55,1.55,0,0,1-1.55-1.56h0a1.54,1.54,0,0,1,1.55-1.55h64.24a1.54,1.54,0,0,1,1.55,1.55h0A1.55,1.55,0,0,1,677.31,500.65Z" fill="#ccc"/><path d="M679.65,507.83H615.41a1.56,1.56,0,0,1-1.56-1.56h0a1.56,1.56,0,0,1,1.56-1.55h64.24a1.56,1.56,0,0,1,1.55,1.55h0A1.56,1.56,0,0,1,679.65,507.83Z" fill="#ccc"/><path d="M713.8,507.83H693.05a4.42,4.42,0,0,1-4.22-3.1L671.53,450a4.43,4.43,0,0,1,4.22-5.77H696.5a4.44,4.44,0,0,1,4.23,3.1L718,502.06A4.43,4.43,0,0,1,713.8,507.83Z" fill="#ccc"/><path d="M747.07,530H603.46a4.24,4.24,0,0,1-4.25-4.24h0a4.25,4.25,0,0,1,4.25-4.25H747.07a4.24,4.24,0,0,1,4.24,4.25h0A4.24,4.24,0,0,1,747.07,530Z" fill="#fff"/><path d="M788.53,416.41a3.61,3.61,0,0,1-3.14-1.81l-4.78-8.4a3.6,3.6,0,0,1,1.45-4.95l13.3-7a3.61,3.61,0,0,1,4.83,1.46l4.54,8.33a3.6,3.6,0,0,1-1.44,4.88L790.23,416A3.58,3.58,0,0,1,788.53,416.41Zm8.5-20.94a1.93,1.93,0,0,0-.9.22l-13.3,7a2,2,0,0,0-1,1.17,1.92,1.92,0,0,0,.17,1.5h0l4.78,8.4a2,2,0,0,0,2.61.75l13.06-7.1a1.91,1.91,0,0,0,.93-1.15,1.88,1.88,0,0,0-.16-1.47l-4.54-8.34A1.93,1.93,0,0,0,797,395.47Z" fill="#00829d"/><path d="M734,503.28c-.93,1.19-1.67,2-1.67,2s-7-5.27-8.91-5.76-6.06,1-8.42,1.17-2.55-1.26-2.55-1.26-9,3.75-10.43,4.1-2.42-.14-1.52-2.42a9.43,9.43,0,0,1,1.66-2.26h0c3.07-3.47,9.39-9,11.66-10.1,2.9-1.38,6.84-3.38,10-2.2s13.48,8.9,13.48,8.9C737.64,498,735.59,501.27,734,503.28Z" fill="#ffe1bd"/><path d="M736.17,495.85,734,503.28c-.93,1.19-1.67,2-1.67,2s-7-5.27-8.91-5.76-6.06,1-8.42,1.17-2.55-1.26-2.55-1.26-9,3.75-10.43,4.1-2.42-.14-1.52-2.42a9.43,9.43,0,0,1,1.66-2.26c-.77,1.06-1.61,2.14-1.11,3.49.61,1.63,10.25-3,17.22-7.17.11-.06.67-.34.86,0s-.28.67-.38.78c-1.16,1.25-7,1.69-5.82,3.55,1.67,2.62,7.66-2.19,10.94-1.11a33.89,33.89,0,0,1,7.39,4.08S733.17,496.81,736.17,495.85Z" fill="#ffd19f"/><path d="M731.3,505.24s34.15,29.87,59.71,32.91,68.66-45.45,68.66-45.45S857,466.87,841,469.91s-37.3,41.44-46.56,43.24-57.38-18.6-57.38-18.6a12.44,12.44,0,0,0-3,3.66A32.36,32.36,0,0,0,731.3,505.24Z" fill="#b7135e"/><path d="M847.51,358c-9.35-10.7-23.16-11.85-33.83-10.67-14,1.55-26.17,11-30.21,24.49A31.44,31.44,0,0,0,784.1,392c8.7,24,17.82,39.37,26.32,43.92,3.24,1.74,9.44.58,16.07-1.74a1.86,1.86,0,0,1,2.27.87l2.79,5.23L856.14,435a84.16,84.16,0,0,1-4.84-14C854.88,416.4,864.61,377.59,847.51,358Z" fill="#ffe1bd"/><path d="M797.82,392.31A7,7,0,0,1,805,396.5c2,4.81,5.15,11.54,7.6,13.73a2.51,2.51,0,0,0,2.7,0,2.13,2.13,0,0,0,1.24-2.1c-.21-2.08-1.75-6.59-2.84-9.58-1.4-3.84.26-7.91,4.84-8.93a10.89,10.89,0,0,1,4,.24c7.27,2.21,2.26,13.61,2.11,19.56-.1,4.2,4.92,13.93,7.15,14.8,7.31,2.87,18.38.28,24.25-7s7.14-31.5,3.93-46-14.81-22.69-18.65-23.62a13.53,13.53,0,0,0-4.55-.35,4.25,4.25,0,0,1-3.21-1.05c-3.86-3.36-15.41-11.05-33.68-3.16a42.35,42.35,0,0,0-26.21,40.41c.27,6.19,5.13,5.74,8.51,4.66a5.6,5.6,0,0,1,5.35,1.16A13.7,13.7,0,0,0,797.82,392.31Z" fill="#552b5d"/><path d="M830.79,444.21s-2.11-2.35-1.31-3.8c1-1.78,11.79-10.32,24.38-9.87,2,.07,4.36.07,6.7,5.18a37.22,37.22,0,0,1,2.91,8.49Z" fill="#b7135e"/><path d="M878.73,650.78c-.76.18-1.59.36-2.45.53-10.69,2-28.08,2.22-28.08,2.22-34.28-.62-51.61-32.55-57.18-42.08a35.49,35.49,0,0,1-2.74-5.59c2-1.05,25.25-13.6,24-56.48-.25-8.89-.13-28.78-4.55-36.5-2.44-4.25-9.65-12.85-14.18-21.92-3.71-7.46-5.63-15.23-1.57-21.17,10.08-14.8,26-22.68,26-22.68s29.18-11.68,54-9c15.76,1.66,29.8,9.08,33.55,28.93C915.19,518.11,878.73,650.78,878.73,650.78Z" fill="#e51875"/><path d="M821.82,538.16c4.23,42.18-24.49,68.74-30.8,73.29a35.49,35.49,0,0,1-2.74-5.59c2-1.05,23.85-20.05,24-56.48,0-8.89-.13-28.78-4.55-36.5-2.44-4.25-9.65-12.85-14.18-21.92l1.92-.74,11.71-1.94,5.93,4.84S819.07,510.83,821.82,538.16Z" fill="#b7135e"/><path d="M878.73,650.78c-.76.18-1.59.36-2.45.53,2.19-11.52,16-83.88,20.55-110.12,8.9-51.8-.37-78-5.59-87.44-4.22-7.6-12.35-11.63-19.26-15.67,15.76,1.66,29.8,9.08,33.55,28.93C915.19,518.11,878.73,650.78,878.73,650.78Z" fill="#b7135e"/><path d="M710.53,805.36a22.69,22.69,0,0,1-8.15,1.57c-5,0-6.5-1.88-6.5-1.88V793.57l16.58-2.13Z" fill="#ffe1bd"/><path d="M840.82,644.83c-.1,7.46-2.08,19.37-13.26,22.73-16.69,5-29,2.16-48.36-1.18-16.2-2.79-58.88-12-66.72-15a1.36,1.36,0,0,0-1.82,1.54c3.7,18.08,6.66,25.9,9.05,53,2,22.8-6.74,87.34-6.74,87.34a46.21,46.21,0,0,1-5.52,1.28,22.31,22.31,0,0,1-3.18.28,72.42,72.42,0,0,1-9.26-.78s-17.31-95-19.65-133.56,1.34-41.69,18.85-49.86S790,605.58,790,605.58l0,0c.22.68,4.63,12.7,17.61,23.59C815.31,635.69,826.09,641.77,840.82,644.83Z" fill="#00a2c4"/><path d="M793.23,612.23A44.37,44.37,0,0,1,790,605.6l0,0-2.47-.09A65.26,65.26,0,0,0,793.23,612.23Z" fill="#b7135e"/><path d="M830,641.83c-1.57,5.65-4.95,11.16-12,13.27-16.68,5-29,2.17-48.35-1.18C753.47,651.14,710.8,642,703,639a1.36,1.36,0,0,0-1.82,1.54c3.7,18.08,6.66,25.9,9.06,53,1.57,17.75.9,75.63.53,100.39,1.31-.32,2.25-.6,2.25-.6s8.76-64.54,6.74-87.34c-2.39-27.14-5.35-35-9.05-53a1.36,1.36,0,0,1,1.82-1.54c7.84,3,50.52,12.16,66.72,15,19.35,3.34,31.67,6.18,48.36,1.18,11.18-3.36,13.16-15.27,13.26-22.73A83.91,83.91,0,0,1,830,641.83Z" fill="#00829d" opacity="0.38"/><path d="M695.6,803.45a26.34,26.34,0,0,0,8.23,1.71,19.84,19.84,0,0,0,8.11-1.71s8.35,10.63,3.91,22.48a1.61,1.61,0,0,1-1.51,1h-56a1.25,1.25,0,0,1-1.27-1.21c0-1.38.53-3.58,3.93-4.62,5.17-1.58,10.51-2.46,14.51-3.88s9.74-7.29,13-8.37C692.55,807.49,695.6,803.45,695.6,803.45Z" fill="#391d3e"/><path d="M670.19,522.75s-5-1.3-7.56-1.83c-1-.21-2-.33-2.77-.41a14.4,14.4,0,0,0-3.28.11l-26.79,3.7a1.42,1.42,0,0,1-1.59-1.22,3.1,3.1,0,0,1,1-2.77l2.62-2.25,7.82-6.74c3.87-3.33,6.94-3.93,12.06-4.18a47.23,47.23,0,0,1,5.52,1.11c5.25,1,6.44,1.57,9.94,2.29a24.51,24.51,0,0,0,2.93.47,2.63,2.63,0,0,0,1.16,0A16.19,16.19,0,0,1,670.19,522.75Z" fill="#ffe1bd"/><path d="M711.07,525.41a.13.13,0,0,1-.16,0c-.69-.28-4.87-2-7.15-2.81-.84-.29-1.63-.52-2.32-.69a17.94,17.94,0,0,0-3.65-.44H670.91a1.52,1.52,0,0,1-1.55-1.48,3.11,3.11,0,0,1,1.41-2.55l2.9-1.87c-2.74,2.09-3.18,3.66-1.81,3.82,1.1.14,3.71-.15,10.3-2,.15,0,.21.19.08.27a1.47,1.47,0,0,0,.91,2.79c1.11,0,5.83-.35,6.91-.41,4.22-.24,10.36-.64,11.54-.42a20.41,20.41,0,0,1,5.9,2c1.16.6,2.25-.71,2.68-1.94a47.82,47.82,0,0,1,2.37-5.9,2.81,2.81,0,0,0,1.16.12A16.37,16.37,0,0,1,711.07,525.41Z" fill="#f4f4f4"/><path d="M816.87,460.9c-3.54-2.16-14.26-8.11-28.07,13.44s-24.87,37.7-29.7,40.6-16.72.83-21,.83-67-4.89-67-4.89-3,6.48-3.52,12.07c0,0,57.45,15.06,93,15.2s62.69-53.74,63.93-60.23S825.34,466.07,816.87,460.9Z" fill="#e51875"/><path d="M782.5,410.73a.8.8,0,0,1-.73-.45.83.83,0,0,1,.35-1.11L813,393.34c3.5-1.79,10.65-5.46,16,2.33a.83.83,0,0,1-.22,1.15.82.82,0,0,1-1.15-.21c-4.14-6.08-9.08-4.24-13.78-1.83l-31,15.86A.73.73,0,0,1,782.5,410.73Z" fill="#00829d"/><path d="M813.53,395.31l3.73,11.92a3.79,3.79,0,0,0,5.7-.42c2.79-3.22,5.23-14.4.1-16.26S814.82,391.32,813.53,395.31Z" fill="#ffe1bd"/><path d="M953.92,567.85c0-60.17-1.41-102.56-39.53-108.94-51.85-8.68-92.41,36.22-84.11,122.24,4.75,49.3-15.46,66.21-32.67,75.84-11.13,6.23-32.68,4.89-32.68,4.89s-10-1.18-16.68-1.81c4.15,1.91,92.93,45.66,156.29,13.33C960.69,644.75,953.92,603.25,953.92,567.85Z" fill="#e6e6e6"/><path d="M953.92,567.85c0-60.17-1.41-102.56-39.53-108.94-1.83-.31-3.64-.54-5.45-.71-41.54,4.11-68.76,47.86-61.52,123,4.76,49.29-15.45,66.21-32.67,75.84-11.13,6.22-32.67,4.89-32.67,4.89l-1.43-.44a106.45,106.45,0,0,1-15.72.41s-10-1.18-16.68-1.81c4.15,1.91,92.93,45.66,156.29,13.33C960.69,644.75,953.92,603.25,953.92,567.85Z" fill="#ccc"/><path d="M270.25,175a46.61,46.61,0,0,0,46.61,46.61H600a62.66,62.66,0,0,0,0-125.31h-.08A84,84,0,0,0,437.73,68.53,74.1,74.1,0,0,0,336.88,133a46.52,46.52,0,0,0-66.63,42Zm205.56-1.76c1.12.61,2.27,1.2,3.42,1.76H474.8C475.14,174.45,475.48,173.87,475.81,173.28Z" fill="#c68e0b" opacity="0.36"/><path d="M253.57,159.69a46.61,46.61,0,0,0,46.61,46.61H583.27a62.66,62.66,0,1,0,0-125.31h-.07a84,84,0,0,0-162.15-27.8A74.1,74.1,0,0,0,320.2,117.65a46.52,46.52,0,0,0-66.63,42Zm205.56-1.76c1.13.62,2.27,1.2,3.43,1.76h-4.44C458.46,159.11,458.8,158.53,459.13,157.93Z" fill="#fce09f"/><line x1="458.09" y1="211.34" x2="458.09" y2="217.34" fill="none" stroke="#c6c6c6" stroke-linecap="round" stroke-width="3"/><line x1="458.09" y1="231.77" x2="458.09" y2="412.18" fill="none" stroke="#c6c6c6" stroke-linecap="round" stroke-width="3" stroke-dasharray="12.37 14.43"/><line x1="458.09" y1="419.4" x2="458.09" y2="425.4" fill="none" stroke="#c6c6c6" stroke-linecap="round" stroke-width="3"/><line x1="264.69" y1="440.06" x2="264.69" y2="434.06" fill="none" stroke="#c6c6c6" stroke-linecap="round" stroke-width="3"/><path d="M264.69,420.34V354.48a89.61,89.61,0,0,1,89.6-89.61H567.76a84,84,0,0,1,84,83.95V427.2" fill="none" stroke="#c6c6c6" stroke-linecap="round" stroke-width="3" stroke-dasharray="11.76 13.72"/><line x1="651.71" y1="434.06" x2="651.71" y2="440.06" fill="none" stroke="#c6c6c6" stroke-linecap="round" stroke-width="3"/><path d="M186.29,207.9c0-.59.06-1.19.06-1.79a29.8,29.8,0,0,0-38.73-28.4c0-.11,0-.21,0-.31a36.85,36.85,0,0,0-71.75-11.81,28.52,28.52,0,0,0-43.17,24.48,27.91,27.91,0,0,0,.5,5.29,28.52,28.52,0,0,0,4.13,56.75H179a22.7,22.7,0,0,0,7.25-44.21Z" fill="#00829d" opacity="0.36"/><path d="M177.48,200c0-.59.06-1.19.06-1.79a29.8,29.8,0,0,0-38.73-28.4c0-.1,0-.21,0-.31a36.85,36.85,0,0,0-71.75-11.81A28.53,28.53,0,0,0,23.9,182.13a28.75,28.75,0,0,0,.49,5.29,28.53,28.53,0,0,0,4.14,56.75h141.7A22.7,22.7,0,0,0,177.48,200Z" fill="#99dae7"/><path d="M191.58,189.39c0-.59.06-1.19.06-1.79a29.77,29.77,0,0,0-38.73-28.4c0-.11,0-.21,0-.31a36.85,36.85,0,0,0-71.75-11.81A28.52,28.52,0,0,0,38,171.56a28.84,28.84,0,0,0,.49,5.29,28.53,28.53,0,0,0,4.13,56.75H184.33a22.7,22.7,0,0,0,7.25-44.21Z" fill="none" stroke="#fff" stroke-miterlimit="10" stroke-width="3"/><path d="M926.75,236.84c0-.66,0-1.31,0-2v-.53l-.4,0a44.73,44.73,0,0,0-52.94-36.13A53.79,53.79,0,0,0,775,223.58,33.74,33.74,0,0,0,724.66,253v.34a33.41,33.41,0,0,0,33.41,33.41H874.94c1.28,0,2.55-.06,3.81-.15,1.2.09,2.41.15,3.63.15a44.56,44.56,0,0,0,44.37-49.89Z" fill="#00829d" opacity="0.36"/><path d="M917.48,228.48c0-.65,0-1.31,0-2V226l-.41,0a44.68,44.68,0,0,0-52.94-36.13,53.78,53.78,0,0,0-98.48,25.32,33.76,33.76,0,0,0-50.32,29.41V245a33.42,33.42,0,0,0,33.42,33.42H865.67c1.28,0,2.55-.07,3.81-.16,1.2.1,2.4.16,3.63.16a44.65,44.65,0,0,0,44.37-49.9Z" fill="#99dae7"/><path d="M903.38,221.43c0-.65,0-1.31,0-2v-.52l-.41,0a44.68,44.68,0,0,0-52.94-36.13,53.78,53.78,0,0,0-98.48,25.32,33.76,33.76,0,0,0-50.32,29.41v.33a33.42,33.42,0,0,0,33.42,33.42H851.57c1.28,0,2.55-.07,3.81-.16,1.2.1,2.4.16,3.63.16a44.65,44.65,0,0,0,44.37-49.9Z" fill="none" stroke="#fff" stroke-miterlimit="10" stroke-width="3"/><g id="g36"><g id="g32"><polygon id="polygon28" points="514.89 109.8 530.39 82.59 514.89 55.38 483.88 55.38 468.38 82.59 483.88 109.8 514.89 109.8" fill="#f8b20e"/><polygon id="polygon30" points="514.89 170.19 530.39 142.97 514.89 115.76 483.88 115.76 468.38 142.97 483.88 170.19 514.89 170.19" fill="#f8b20e"/></g><polygon id="polygon34" points="463.35 139.99 478.86 112.78 463.35 85.57 432.34 85.57 416.83 112.78 432.34 139.99 463.35 139.99" fill="#f8b20e"/></g></g></g></g></svg>