<?xml version="1.0" encoding="utf-8"?>
<!-- Generator: Adobe Illustrator 25.4.1, SVG Export Plug-In . SVG Version: 6.00 Build 0)  -->
<svg version="1.1" id="Layer_1" xmlns="http://www.w3.org/2000/svg" xmlns:xlink="http://www.w3.org/1999/xlink" x="0px" y="0px"
	 viewBox="0 0 1366 768" enable-background="new 0 0 1366 768" xml:space="preserve">
<g>
	<g>
		<path fill="#F8B20E" d="M144.04,613c-0.17-0.88-0.45-1.72-0.82-2.51c-0.24-0.52-0.15-1.14,0.27-1.52c0.8-0.73,0.86-1.97,0.13-2.77
			l-0.08-0.09c-0.7-0.77-1.9-0.83-2.68-0.12c-0.4,0.36-1,0.39-1.44,0.1c-0.77-0.51-1.61-0.93-2.5-1.23c-0.5-0.17-0.82-0.67-0.79-1.2
			c0.05-1.06-0.77-1.95-1.82-2l-0.2-0.01c-1.03-0.05-1.9,0.75-1.95,1.77c-0.02,0.53-0.42,0.97-0.95,1.08
			c-0.89,0.18-1.74,0.48-2.54,0.87c-0.51,0.25-1.13,0.19-1.52-0.23c-0.71-0.78-1.91-0.83-2.69-0.12l-0.14,0.13
			c-0.77,0.7-0.82,1.89-0.12,2.65c0.35,0.39,0.41,0.97,0.12,1.42c-0.48,0.74-0.87,1.55-1.16,2.4c-0.19,0.55-0.68,0.96-1.26,0.93
			c-1.07-0.05-1.99,0.78-2.04,1.86l-0.01,0.09c-0.05,1.07,0.78,1.98,1.85,2.03c0.54,0.03,1.01,0.4,1.13,0.92
			c0.19,0.87,0.49,1.7,0.87,2.48c0.26,0.52,0.14,1.15-0.29,1.55c-0.81,0.74-0.87,2-0.13,2.81c0.74,0.81,2,0.86,2.82,0.12
			c0.44-0.4,1.11-0.38,1.62-0.07c0.67,0.41,1.39,0.76,2.14,1.02c0.58,0.2,0.92,0.78,0.9,1.39c-0.05,1.1,0.8,2.03,1.89,2.08
			c1.11,0.05,2.03-0.83,2.08-1.94c0.03-0.6,0.5-1.07,1.08-1.2c0.75-0.17,1.46-0.41,2.14-0.73c0.58-0.27,1.29-0.15,1.72,0.32
			c0.74,0.81,2,0.87,2.81,0.13c0.82-0.74,0.86-2.01,0.11-2.83c-0.4-0.44-0.38-1.11-0.06-1.62c0.43-0.66,0.78-1.38,1.06-2.13
			c0.2-0.56,0.75-0.92,1.35-0.89c1.1,0.05,2.03-0.82,2.08-1.92c0.05-1.08-0.79-2-1.87-2.05C144.62,613.91,144.15,613.53,144.04,613z
			 M137.44,615.34c-0.14,2.23-2.05,3.92-4.27,3.78c-2.22-0.13-3.92-2.05-3.78-4.27c0.14-2.23,2.05-3.92,4.27-3.78
			C135.88,611.21,137.57,613.12,137.44,615.34z"/>
		<path fill="#D2B6D7" d="M121.64,578.56c-0.58,0.31-1.3,0.17-1.72-0.34c-0.51-0.64-1.07-1.24-1.67-1.79
			c-0.49-0.46-0.62-1.2-0.27-1.77l0.6-0.99c0.57-0.94,0.28-2.16-0.66-2.74c-0.94-0.57-2.16-0.28-2.73,0.66l-0.59,0.96
			c-0.34,0.56-1.04,0.8-1.65,0.56c-0.77-0.3-1.55-0.55-2.36-0.74c-0.66-0.16-1.16-0.74-1.14-1.42l0.03-1.04
			c0.03-1.1-0.84-2.01-1.94-2.04c-1.1-0.03-2.01,0.84-2.04,1.93l-0.03,0.97c-0.02,0.66-0.51,1.21-1.15,1.3
			c-0.83,0.11-1.64,0.29-2.46,0.53c-0.66,0.2-1.41-0.03-1.74-0.64l-0.42-0.76c-0.52-0.97-1.73-1.32-2.69-0.8
			c-0.97,0.53-1.32,1.73-0.8,2.7l0.37,0.68c0.32,0.59,0.13,1.32-0.4,1.73c-0.68,0.53-1.32,1.11-1.9,1.72
			c-0.48,0.5-1.23,0.67-1.82,0.31l-0.58-0.35c-0.93-0.57-2.16-0.28-2.73,0.66c-0.57,0.93-0.28,2.16,0.66,2.73l0.51,0.31
			c0.59,0.36,0.76,1.11,0.51,1.75c-0.34,0.84-0.6,1.71-0.8,2.6c-0.14,0.64-0.73,1.08-1.39,1.06l-0.52-0.01
			c-1.1-0.03-2.01,0.84-2.04,1.94c-0.03,1.1,0.84,2.01,1.94,2.04l0.47,0.01c0.69,0.02,1.22,0.58,1.32,1.26
			c0.14,0.9,0.35,1.79,0.63,2.67c0.2,0.63-0.07,1.32-0.65,1.63l-0.39,0.21c-0.97,0.52-1.32,1.73-0.8,2.7
			c0.52,0.97,1.73,1.32,2.7,0.8l0.39-0.21c0.58-0.32,1.31-0.16,1.72,0.35c0.61,0.75,1.28,1.45,1.99,2.07
			c0.49,0.43,0.58,1.15,0.24,1.71l-0.25,0.4c-0.57,0.93-0.28,2.16,0.66,2.74c0.94,0.57,2.16,0.28,2.74-0.66l0.27-0.44
			c0.36-0.59,1.11-0.78,1.76-0.54c0.85,0.31,1.73,0.55,2.62,0.73c0.64,0.12,1.08,0.7,1.06,1.35l-0.02,0.6
			c-0.03,1.1,0.84,2.01,1.94,2.04c1.1,0.03,2.01-0.84,2.04-1.94l0.02-0.67c0.02-0.68,0.55-1.23,1.22-1.35
			c0.87-0.16,1.73-0.38,2.58-0.68c0.61-0.22,1.29,0.07,1.6,0.64l0.37,0.68c0.52,0.97,1.73,1.32,2.7,0.8c0.97-0.52,1.32-1.73,0.8-2.7
			l-0.42-0.76c-0.32-0.59-0.16-1.32,0.35-1.76c0.65-0.55,1.25-1.14,1.79-1.76c0.44-0.51,1.19-0.67,1.76-0.32l0.83,0.51
			c0.94,0.57,2.16,0.28,2.73-0.65c0.58-0.94,0.28-2.16-0.65-2.74l-0.89-0.55c-0.56-0.35-0.81-1.04-0.59-1.66
			c0.28-0.77,0.5-1.57,0.67-2.38c0.14-0.66,0.7-1.17,1.38-1.15l1.12,0.03c1.1,0.03,2.01-0.84,2.04-1.93
			c0.03-1.1-0.84-2.01-1.93-2.04l-1.16-0.03c-0.65-0.02-1.22-0.48-1.32-1.12c-0.14-0.8-0.33-1.59-0.58-2.38
			c-0.21-0.65,0.03-1.37,0.63-1.69l1.05-0.57c0.96-0.52,1.32-1.73,0.8-2.7c-0.52-0.97-1.73-1.32-2.7-0.8L121.64,578.56z
			 M112.29,586.02c1.64,3.02,0.52,6.81-2.51,8.45c-3.03,1.64-6.81,0.52-8.45-2.51c-1.64-3.03-0.52-6.81,2.51-8.45
			C106.87,581.87,110.65,582.99,112.29,586.02z"/>
		<path fill="#F8B20E" d="M144.04,613c-0.17-0.88-0.45-1.72-0.82-2.51c-0.24-0.52-0.15-1.14,0.27-1.52c0.8-0.73,0.86-1.97,0.13-2.77
			l-0.08-0.09c-0.7-0.77-1.9-0.83-2.68-0.12c-0.4,0.36-1,0.39-1.44,0.1c-0.77-0.51-1.61-0.93-2.5-1.23c-0.5-0.17-0.82-0.67-0.79-1.2
			c0.05-1.06-0.77-1.95-1.82-2l-0.2-0.01c-1.03-0.05-1.9,0.75-1.95,1.77c-0.02,0.53-0.42,0.97-0.95,1.08
			c-0.89,0.18-1.74,0.48-2.54,0.87c-0.51,0.25-1.13,0.19-1.52-0.23c-0.71-0.78-1.91-0.83-2.69-0.12l-0.14,0.13
			c-0.77,0.7-0.82,1.89-0.12,2.65c0.35,0.39,0.41,0.97,0.12,1.42c-0.48,0.74-0.87,1.55-1.16,2.4c-0.19,0.55-0.68,0.96-1.26,0.93
			c-1.07-0.05-1.99,0.78-2.04,1.86l-0.01,0.09c-0.05,1.07,0.78,1.98,1.85,2.03c0.54,0.03,1.01,0.4,1.13,0.92
			c0.19,0.87,0.49,1.7,0.87,2.48c0.26,0.52,0.14,1.15-0.29,1.55c-0.81,0.74-0.87,2-0.13,2.81c0.74,0.81,2,0.86,2.82,0.12
			c0.44-0.4,1.11-0.38,1.62-0.07c0.67,0.41,1.39,0.76,2.14,1.02c0.58,0.2,0.92,0.78,0.9,1.39c-0.05,1.1,0.8,2.03,1.89,2.08
			c1.11,0.05,2.03-0.83,2.08-1.94c0.03-0.6,0.5-1.07,1.08-1.2c0.75-0.17,1.46-0.41,2.14-0.73c0.58-0.27,1.29-0.15,1.72,0.32
			c0.74,0.81,2,0.87,2.81,0.13c0.82-0.74,0.86-2.01,0.11-2.83c-0.4-0.44-0.38-1.11-0.06-1.62c0.43-0.66,0.78-1.38,1.06-2.13
			c0.2-0.56,0.75-0.92,1.35-0.89c1.1,0.05,2.03-0.82,2.08-1.92c0.05-1.08-0.79-2-1.87-2.05C144.62,613.91,144.15,613.53,144.04,613z
			 M137.44,615.34c-0.14,2.23-2.05,3.92-4.27,3.78c-2.22-0.13-3.92-2.05-3.78-4.27c0.14-2.23,2.05-3.92,4.27-3.78
			C135.88,611.21,137.57,613.12,137.44,615.34z"/>
	</g>
	<g>
		<path fill="#FFFFFF" d="M474.96,450.9c-0.54-8.46-7.56-15.15-16.16-15.15c-7.29,0-13.45,4.81-15.48,11.44
			c-5.33,0.51-9.5,4.99-9.5,10.45c0,5.8,4.7,10.5,10.5,10.5c0.03,0,0.05,0,0.08,0v0h4.77v-0.01c2.39,0,4.02-0.76,5-2.33
			c1.13-1.82,1.19-3.83,0.93-5.36h-6.06l9.26-13.24l9.26,13.24h-6.06c-0.26,1.53-0.2,3.54,0.93,5.36c0.97,1.57,2.61,2.33,5,2.33
			v0.01h6.69v0c4.76-0.02,8.61-3.88,8.61-8.64C482.73,455.01,479.32,451.33,474.96,450.9z"/>
	</g>
	<path fill="#F2F2F2" d="M129.31,181.52c-0.52-8.24-7.37-14.77-15.75-14.77c-7.1,0-13.11,4.69-15.09,11.15
		c-5.19,0.49-9.26,4.86-9.26,10.18c0,5.65,4.58,10.24,10.23,10.24c0.02,0,0.05,0,0.07,0v0h5.63c2.25,0.03,3.8,0.77,4.73,2.27
		c1.1,1.77,1.16,3.73,0.91,5.22h-5.91l9.03,12.9l9.03-12.9h-5.91c-0.25-1.49-0.19-3.45,0.91-5.22c0.93-1.5,2.48-2.23,4.73-2.27h5.83
		v0c4.64-0.02,8.39-3.78,8.39-8.42C136.88,185.53,133.56,181.95,129.31,181.52z"/>
	<g>
		<path fill="#CCCCCC" d="M152.76,394.16v-11.09c0-3.02-2.46-5.49-5.49-5.49c-3.02,0-5.48,2.46-5.48,5.49v11.09h-4.23v-11.09
			c0-5.36,4.36-9.72,9.72-9.72c5.36,0,9.72,4.36,9.72,9.72v11.09H152.76z"/>
		<path fill="#FFFFFF" d="M159.8,399.26c0,6.92-5.61,12.52-12.52,12.52c-6.92,0-12.52-5.61-12.52-12.52
			c0-6.92,5.61-12.52,12.52-12.52C154.19,386.73,159.8,392.34,159.8,399.26z"/>
		<path fill="#99DAE7" d="M159.8,399.26c0,6.92-5.61,12.52-12.52,12.52c-6.92,0-12.52-5.61-12.52-12.52
			c0-6.92,5.61-12.52,12.52-12.52C154.19,386.73,159.8,392.34,159.8,399.26z"/>
		<path fill="#FFFFFF" d="M150.91,396.77c0-2-1.63-3.63-3.63-3.63c-2,0-3.63,1.63-3.63,3.63c0,1.51,0.92,2.8,2.22,3.35l-1.46,5.25
			h5.74l-1.46-5.25C149.99,399.57,150.91,398.28,150.91,396.77z"/>
	</g>
	<g>
		<path fill="#F5A3C8" d="M1257.07,201.01c-2.97-0.13-5.41,2.2-5.54,5.07c-0.13,2.93,2.14,5.41,5.06,5.54
			c2.93,0.12,5.41-2.14,5.54-5.07C1262.27,203.63,1260.01,201.13,1257.07,201.01z"/>
		<path fill="#F5A3C8" d="M1257.43,192.74c-4.01-0.17-7.91,1.41-10.66,4.46c-0.86,0.96-0.49,2.42,0.6,3.11
			c1.1,0.7,2.52,0.37,3.48-0.51c1.69-1.56,3.94-2.43,6.37-2.33c2.19,0.1,4.16,0.98,5.65,2.37c0.96,0.9,2.39,1.28,3.5,0.58
			c1.12-0.71,1.42-2.23,0.54-3.21C1264.57,194.6,1261.22,192.91,1257.43,192.74z"/>
		<path fill="#F5A3C8" d="M1257.76,184.66c-6.91-0.3-13.19,2.76-17.25,7.8c-0.82,1.02-0.5,2.51,0.61,3.21
			c1.11,0.71,2.55,0.36,3.41-0.64c3.15-3.66,7.85-5.86,13.03-5.64c4.7,0.2,8.84,2.37,11.66,5.68c0.86,1.01,2.31,1.4,3.43,0.69
			c1.1-0.7,1.46-2.17,0.65-3.18C1269.65,187.98,1264.1,184.94,1257.76,184.66z"/>
		<path fill="#F5A3C8" d="M1258.08,176.71c-9.62-0.41-18.3,3.99-23.74,11.14c-0.8,1.05-0.49,2.54,0.62,3.25
			c1.11,0.71,2.56,0.36,3.38-0.67c4.52-5.75,11.63-9.32,19.54-8.98c7.19,0.31,13.49,3.8,17.57,9.08c0.8,1.03,2.25,1.37,3.35,0.67
			c1.09-0.69,1.47-2.14,0.7-3.17C1274.6,181.45,1266.9,177.09,1258.08,176.71z"/>
	</g>
	<path fill="#FCE09F" d="M553.81,145.45c-1.05,0-1.91-0.85-1.91-1.91v-1.09c0-1.8-1.46-3.26-3.26-3.26h-10.92
		c-1.8,0-3.26,1.46-3.26,3.26v3v21.29c0,2.11,1.71,3.82,3.82,3.82h32.13c2.11,0,3.82-1.71,3.82-3.82v-17.47
		c0-2.11-1.71-3.82-3.82-3.82H553.81z"/>
</g>
</svg>
