<?xml version="1.0" encoding="utf-8"?>
<!-- Generator: Adobe Illustrator 25.4.1, SVG Export Plug-In . SVG Version: 6.00 Build 0)  -->
<svg version="1.1" id="ardc-nectar" xmlns="http://www.w3.org/2000/svg" xmlns:xlink="http://www.w3.org/1999/xlink" x="0px"
	 y="0px" viewBox="0 0 278.35 85.87" enable-background="new 0 0 278.35 85.87" xml:space="preserve">
<g id="logo">
	<g id="layer1">
		<g id="g894">
			<g id="g994">
				<g id="g12">
					<polygon id="polygon4" fill="#FFFFFF" points="117.08,0 113.02,0 104.91,20.2 110.45,20.2 112.56,20.2 115,12.07 115.07,12.07 
						115.1,12.07 117.54,20.2 119.51,20.2 125.11,20.2 					"/>
					<path id="path6" fill="#FFFFFF" d="M191.12,10.1c0-5.58-4.52-10.1-10.1-10.1c-0.01,0-0.01,0-0.02,0h-4.51v6H181
						c2.3,0.11,4.07,2.07,3.96,4.37c-0.11,2.14-1.82,3.86-3.96,3.96h-4.51v5.87H181c5.57,0,10.09-4.52,10.09-10.09"/>
					<path id="path8" fill="#FFFFFF" d="M208.71,10.1c0-5.57,4.52-10.09,10.09-10.1h4.51v6h-4.51c-2.3,0.11-4.07,2.07-3.96,4.37
						c0.11,2.14,1.82,3.86,3.96,3.96h4.51v5.87h-4.51c-5.57,0-10.09-4.52-10.09-10.09"/>
					<path id="path10" fill="#FFFFFF" d="M156.33,7c0.05-2.12-0.86-4.14-2.48-5.51C152.1,0.05,149.75,0,147.63,0h-6.39v5.23h7
						c1.33,0,2.49,0.56,2.49,2.05s-1.08,2.17-2.53,2.17h-5.64l7.71,10.75H158l-5.68-7.13c2.52-0.94,4.14-3.41,4-6.1"/>
				</g>
				<g id="g26">
					<path id="path14" fill="#959595" d="M114.94,45.67v23.44h-10V30.3h10.3l15.71,22.35V30.3H141v38.81h-9.66L114.94,45.67z"/>
					<path id="path16" fill="#959595" d="M160.85,40.31c8.32,0,14.37,6.11,14.37,15.65v1.93h-20c0.53,2.61,3,5,7.16,5
						c2.49,0,4.91-0.84,6.87-2.39l3.75,5.59c-2.79,2.5-7.45,3.72-11.76,3.72c-8.67,0-15.36-5.64-15.36-14.78
						c-0.12-8.01,6.27-14.6,14.28-14.72c0,0,0,0,0,0C160.4,40.3,160.63,40.31,160.85,40.31z M155.09,52.07h11.58
						c-0.3-2.93-2.89-5.07-5.82-4.83C157.97,47.11,155.47,49.21,155.09,52.07z"/>
					<path id="path18" fill="#959595" d="M193.15,40.31c6.06,0,9.83,2.68,11.52,5.18l-5.82,5.41c-1.19-1.74-3.19-2.75-5.29-2.67
						c-3.5-0.12-6.43,2.61-6.56,6.11c-0.01,0.23-0.01,0.47,0,0.7c-0.25,3.52,2.4,6.59,5.92,6.85c0.22,0,0.44,0,0.66,0
						c2.11,0.03,4.09-0.99,5.29-2.73l5.82,5.47c-1.69,2.44-5.47,5.18-11.52,5.18c-8.79,0-15.36-5.94-15.36-14.78
						S184.36,40.31,193.15,40.31z"/>
					<path id="path20" fill="#959595" d="M210.61,61.55V48.8H206V41h4.66v-7.67h8.91V41h5.7v7.8h-5.7v10.25
						c-0.16,1.39,0.83,2.66,2.22,2.83h0.28c0.82,0.04,1.62-0.21,2.27-0.7L226,68c-1.1,1-3.31,1.86-6.63,1.86
						C213.69,69.82,210.61,67,210.61,61.55z"/>
					<path id="path22" fill="#959595" d="M246.28,66.32c-2.29,2.34-5.46,3.61-8.73,3.5c-4.3,0-9.66-2.91-9.66-9.26
						c0-6.81,5.36-8.84,9.66-8.84c3.73,0,7,1.16,8.73,3.26v-3.55c0-2.45-2.09-4.08-5.7-4.08c-2.94,0.03-5.77,1.09-8,3l-3.2-5.64
						c3.61-2.9,8.11-4.44,12.74-4.37c6.75,0,13.09,2.51,13.09,11.23v17.54h-9L246.28,66.32z M246.28,59.4c-1.29-1.37-3.12-2.1-5-2
						c-2.39,0-4.48,1-4.48,3.26s2.09,3.26,4.48,3.26c1.88,0.12,3.72-0.61,5-2V59.4z"/>
					<path id="path24" fill="#959595" d="M260.6,41h9v3.55c2.22-2.57,5.4-4.11,8.79-4.25V49c-0.72-0.21-1.46-0.31-2.21-0.29
						c-2.33,0-5.41,1-6.58,2.61v17.79h-9L260.6,41z"/>
				</g>
				<g id="g36">
					<g id="g32">
						<polygon id="polygon28" fill="#F5B01A" points="73.14,40.6 84.71,20.3 73.14,0 50.01,0 38.45,20.3 50.01,40.6 						"/>
						<polygon id="polygon30" fill="#F5B01A" points="73.14,85.64 84.71,65.34 73.14,45.04 50.01,45.04 38.45,65.34 50.01,85.64 
													"/>
					</g>
					<polygon id="polygon34" fill="#F5B01A" points="34.7,63.12 46.26,42.82 34.7,22.52 11.56,22.52 0,42.82 11.56,63.12 					"/>
				</g>
				<g id="g64">
					<path id="path38" fill="#959595" d="M109.15,81.53h-1.79v4.11h-2.45V74.16h5.37c1.97-0.16,3.69,1.3,3.85,3.27
						c0,0,0,0.01,0,0.01c0.01,0.14,0.01,0.28,0,0.42c0.1,1.6-0.96,3.03-2.51,3.41l2.58,4.37h-2.8L109.15,81.53z M109.92,76.26h-2.56
						v3.17h2.56c0.88,0.07,1.64-0.58,1.72-1.45c0.07-0.88-0.58-1.64-1.46-1.72C110.09,76.25,110.01,76.25,109.92,76.26z"/>
					<path id="path40" fill="#959595" d="M119,77.12c2.48,0,4.16,1.86,4.16,4.58v0.48H117c0.16,1.17,1.21,2.02,2.39,1.93
						c0.82,0,1.61-0.29,2.22-0.83l1,1.41c-0.97,0.79-2.18,1.2-3.43,1.16c-2.41-0.05-4.32-2.05-4.27-4.47
						C114.96,79.12,116.74,77.26,119,77.12z M117,80.7h4.09c-0.04-1.06-0.94-1.88-2-1.84c0,0,0,0,0,0l0,0
						C118.01,78.81,117.09,79.62,117,80.7z"/>
					<path id="path42" fill="#959595" d="M124.82,83c0.8,0.69,1.81,1.09,2.87,1.13c1,0,1.4-0.32,1.4-0.84s-0.72-0.79-1.66-1
						c-1.43-0.28-3.28-0.62-3.28-2.6c0-1.39,1.23-2.61,3.41-2.61c1.22-0.02,2.4,0.38,3.36,1.13l-0.88,1.5
						c-0.65-0.65-1.54-1.01-2.46-1c-0.79,0-1.31,0.29-1.31,0.77s0.66,0.71,1.59,0.9c1.42,0.27,3.34,0.65,3.34,2.72
						c0,1.51-1.29,2.66-3.6,2.66c-1.36,0.04-2.68-0.42-3.72-1.29L124.82,83z"/>
					<path id="path44" fill="#959595" d="M136.41,77.12c2.48,0,4.17,1.86,4.17,4.58v0.48h-6.18c0.16,1.18,1.21,2.03,2.39,1.93
						c0.82,0,1.61-0.29,2.22-0.83l1,1.41c-0.97,0.79-2.18,1.2-3.43,1.16c-2.41-0.05-4.32-2.05-4.27-4.47
						C132.36,79.12,134.14,77.26,136.41,77.12L136.41,77.12z M134.41,80.7h4.1c-0.05-1.06-0.94-1.88-2-1.84l0,0
						c-1.04,0-1.92,0.8-2,1.84H134.41z"/>
					<path id="path46" fill="#959595" d="M147,84.79c-0.68,0.72-1.64,1.11-2.63,1.07c-1.53,0.07-2.82-1.12-2.89-2.64c0,0,0,0,0-0.01
						V83.1c-0.02-1.45,1.15-2.64,2.6-2.66c0,0,0,0,0,0h0.29c0.98-0.07,1.94,0.3,2.63,1v-1.12c0-0.85-0.72-1.4-1.82-1.4
						c-0.91,0-1.78,0.36-2.43,1l-0.83-1.46c1.01-0.87,2.31-1.33,3.64-1.31c1.89,0,3.63,0.76,3.63,3.15v5.36H147V84.79z M147,82.62
						c-0.44-0.5-1.09-0.76-1.75-0.72c-0.86,0-1.57,0.44-1.57,1.25s0.71,1.23,1.57,1.23c0.66,0.03,1.31-0.23,1.75-0.73V82.62z"/>
					<path id="path48" fill="#959595" d="M151.16,77.33h2.19v1.14c0.65-0.81,1.62-1.29,2.65-1.33v2.14c-0.98-0.23-2,0.11-2.65,0.88
						v5.48h-2.19V77.33z"/>
					<path id="path50" fill="#959595" d="M161.07,77.12c1.28-0.07,2.5,0.49,3.29,1.5L162.93,80c-0.39-0.58-1.05-0.92-1.75-0.89
						c-1.34,0.12-2.32,1.3-2.2,2.64c0.11,1.17,1.03,2.09,2.2,2.2c0.69,0,1.34-0.33,1.74-0.9l1.43,1.32
						c-0.77,1.03-2.01,1.6-3.29,1.52c-2.41,0.15-4.48-1.69-4.63-4.09c-0.15-2.41,1.69-4.48,4.1-4.63c0.13-0.01,0.26-0.01,0.39-0.01
						h0.15L161.07,77.12z"/>
					<path id="path52" fill="#959595" d="M171.25,80.58c0-1.15-0.61-1.51-1.55-1.51c-0.75,0.02-1.45,0.39-1.89,1v5.59h-2.19v-11.5
						h2.19v4.25c0.74-0.83,1.81-1.3,2.92-1.29c1.31-0.17,2.52,0.75,2.7,2.06c0.02,0.19,0.02,0.37,0,0.56v5.9h-2.19L171.25,80.58z"/>
					<path id="path54" fill="#959595" d="M179.17,79.91c-0.06-3.2,2.48-5.84,5.68-5.91h0.34c2.04-0.08,3.94,1.01,4.9,2.81l-2.11,1
						c-0.55-1.03-1.62-1.67-2.79-1.67c-2.08,0.15-3.65,1.96-3.5,4.04c0.14,1.87,1.62,3.36,3.5,3.5c1.18,0.02,2.27-0.63,2.81-1.68
						l2.11,1c-0.96,1.8-2.86,2.89-4.9,2.82c-3.2,0.11-5.88-2.39-6-5.59L179.17,79.91z"/>
					<path id="path56" fill="#959595" d="M191.33,74.16h2.18v11.48h-2.18V74.16z"/>
					<path id="path58" fill="#959595" d="M195,81.48c-0.02-2.43,1.94-4.41,4.37-4.43c2.43-0.02,4.41,1.94,4.43,4.37
						c0.02,2.43-1.94,4.41-4.37,4.43c-0.01,0-0.01,0-0.02,0l0,0c-2.31,0.1-4.28-1.69-4.39-4C195,81.73,195,81.6,195,81.48z
						 M201.52,81.48c-0.16-1.17-1.24-1.99-2.41-1.83c-1.17,0.16-1.99,1.24-1.83,2.41c0.14,1.06,1.04,1.85,2.11,1.85
						c1.21-0.03,2.17-1.03,2.15-2.24c-0.03-0.07-0.03-0.13-0.04-0.19H201.52z"/>
					<path id="path60" fill="#959595" d="M210.84,84.59c-0.75,0.82-1.82,1.28-2.93,1.26c-1.29,0.18-2.48-0.71-2.68-2
						c-0.02-0.19-0.02-0.39,0-0.58v-5.94h2.19v5c-0.12,0.73,0.38,1.42,1.11,1.54c0,0,0,0,0,0c0.14,0.02,0.28,0.02,0.42,0
						c0.75-0.03,1.45-0.4,1.9-1v-5.54H213v8.31h-2.18L210.84,84.59z"/>
					<path id="path62" fill="#959595" d="M220.74,84.58c-0.61,0.8-1.56,1.27-2.57,1.27c-2.1,0-3.68-1.58-3.68-4.35
						s1.57-4.38,3.68-4.38c1.01,0,1.96,0.47,2.57,1.28v-4.24h2.2v11.48h-2.2V84.58z M220.74,80.02c-0.44-0.61-1.14-0.98-1.9-1
						c-1.34,0.21-2.25,1.47-2.04,2.8c0.17,1.05,0.99,1.87,2.04,2.04c0.76-0.01,1.46-0.38,1.9-1V80.02z"/>
				</g>
			</g>
		</g>
	</g>
</g>
</svg>
