<?xml version="1.0" encoding="UTF-8"?><svg xmlns="http://www.w3.org/2000/svg" xmlns:xlink="http://www.w3.org/1999/xlink" fill-opacity="1" color-rendering="auto" color-interpolation="auto" text-rendering="auto" stroke="black" stroke-linecap="square" width="1856" stroke-miterlimit="10" shape-rendering="auto" stroke-opacity="1" fill="black" stroke-dasharray="none" font-weight="normal" stroke-width="1" height="1519" font-family="'Dialog'" font-style="normal" stroke-linejoin="miter" font-size="12px" stroke-dashoffset="0" image-rendering="auto">
  <!--Generated by ySVG 2.5-->
  <defs id="genericDefs"/>
  <g>
    <defs id="defs1">
      <clipPath clipPathUnits="userSpaceOnUse" id="clipPath1">
        <path d="M0 0 L1856 0 L1856 1519 L0 1519 L0 0 Z"/>
      </clipPath>
      <clipPath clipPathUnits="userSpaceOnUse" id="clipPath2">
        <path d="M-241 103 L1615 103 L1615 1622 L-241 1622 L-241 103 Z"/>
      </clipPath>
      <clipPath clipPathUnits="userSpaceOnUse" id="clipPath3">
        <path d="M-564.0641 269.6665 L-564.0641 -1586.3335 L954.9359 -1586.3335 L954.9359 269.6665 L-564.0641 269.6665 Z"/>
      </clipPath>
    </defs>
    <g fill="white" text-rendering="geometricPrecision" shape-rendering="geometricPrecision" transform="translate(241,-103)" stroke="white">
      <rect x="-241" width="1856" height="1519" y="103" clip-path="url(#clipPath2)" stroke="none"/>
    </g>
    <g stroke-linecap="butt" transform="matrix(1,0,0,1,241,-103)" fill="silver" text-rendering="geometricPrecision" shape-rendering="geometricPrecision" stroke-dasharray="30,10" stroke="silver" stroke-width="5" stroke-miterlimit="1.45">
      <rect fill="none" x="451.8438" width="675.8125" height="549.0781" y="1057.4688" clip-path="url(#clipPath2)"/>
    </g>
    <g stroke-linecap="butt" font-size="24px" transform="matrix(1,0,0,1,241,-103)" fill="silver" text-rendering="geometricPrecision" font-family="sans-serif" shape-rendering="geometricPrecision" stroke="silver" font-weight="bold" stroke-miterlimit="1.45">
      <text x="949.5664" xml:space="preserve" y="1595.2734" clip-path="url(#clipPath2)" stroke="none">Expiry process</text>
    </g>
    <g fill="rgb(255,204,0)" text-rendering="geometricPrecision" shape-rendering="geometricPrecision" transform="matrix(1,0,0,1,241,-103)" stroke="rgb(255,204,0)">
      <path d="M471 280 L610.5 280 L626 374 L486.5 374 Z" fill-rule="evenodd" clip-path="url(#clipPath2)" stroke="none"/>
    </g>
    <g text-rendering="geometricPrecision" stroke-miterlimit="1.45" shape-rendering="geometricPrecision" transform="matrix(1,0,0,1,241,-103)" stroke-linecap="butt">
      <path fill="none" d="M471 280 L610.5 280 L626 374 L486.5 374 Z" fill-rule="evenodd" clip-path="url(#clipPath2)"/>
      <text x="509.481" font-size="18px" y="323.0449" clip-path="url(#clipPath2)" font-family="sans-serif" stroke="none" xml:space="preserve">first logon</text>
      <text x="495.959" font-size="18px" y="345.0967" clip-path="url(#clipPath2)" font-family="sans-serif" stroke="none" xml:space="preserve">to dashboard</text>
    </g>
    <g fill="rgb(255,204,0)" text-rendering="geometricPrecision" shape-rendering="geometricPrecision" transform="matrix(1,0,0,1,241,-103)" stroke="rgb(255,204,0)">
      <rect x="712" width="168" height="94" y="213.5" clip-path="url(#clipPath2)" stroke="none"/>
    </g>
    <g text-rendering="geometricPrecision" stroke-miterlimit="1.45" shape-rendering="geometricPrecision" transform="matrix(1,0,0,1,241,-103)" stroke-linecap="butt">
      <rect fill="none" x="712" width="168" height="94" y="213.5" clip-path="url(#clipPath2)"/>
      <text x="744.4697" font-size="18px" y="267.5708" clip-path="url(#clipPath2)" font-family="sans-serif" stroke="none" xml:space="preserve">user account</text>
    </g>
    <g fill="rgb(255,204,0)" text-rendering="geometricPrecision" shape-rendering="geometricPrecision" transform="matrix(1,0,0,1,241,-103)" stroke="rgb(255,204,0)">
      <rect x="712" width="168" height="94" y="337.5" clip-path="url(#clipPath2)" stroke="none"/>
    </g>
    <g text-rendering="geometricPrecision" stroke-miterlimit="1.45" shape-rendering="geometricPrecision" transform="matrix(1,0,0,1,241,-103)" stroke-linecap="butt">
      <rect fill="none" x="712" width="168" height="94" y="337.5" clip-path="url(#clipPath2)"/>
      <text x="758.4839" font-size="18px" y="391.5708" clip-path="url(#clipPath2)" font-family="sans-serif" stroke="none" xml:space="preserve">pt-project</text>
    </g>
    <g fill="rgb(255,204,0)" text-rendering="geometricPrecision" shape-rendering="geometricPrecision" transform="matrix(1,0,0,1,241,-103)" stroke="rgb(255,204,0)">
      <path d="M247.4564 662.8643 L321.4569 810.8643 L173.4564 810.8643 Z" fill-rule="evenodd" clip-path="url(#clipPath2)" stroke="none"/>
    </g>
    <g text-rendering="geometricPrecision" stroke-miterlimit="1.45" shape-rendering="geometricPrecision" transform="matrix(1,0,0,1,241,-103)" stroke-linecap="butt">
      <path fill="none" d="M247.4564 662.8643 L321.4569 810.8643 L173.4564 810.8643 Z" fill-rule="evenodd" clip-path="url(#clipPath2)"/>
      <text x="120.7689" font-size="24px" y="746.292" clip-path="url(#clipPath2)" font-family="sans-serif" stroke="none" xml:space="preserve">user</text>
    </g>
    <g fill="rgb(255,204,0)" text-rendering="geometricPrecision" shape-rendering="geometricPrecision" transform="matrix(1,0,0,1,241,-103)" stroke="rgb(255,204,0)">
      <ellipse rx="52" ry="49.5" clip-path="url(#clipPath2)" cx="247.4564" cy="684.3643" stroke="none"/>
    </g>
    <g text-rendering="geometricPrecision" stroke-miterlimit="1.45" shape-rendering="geometricPrecision" transform="matrix(1,0,0,1,241,-103)" stroke-linecap="butt">
      <ellipse rx="52" fill="none" ry="49.5" clip-path="url(#clipPath2)" cx="247.4564" cy="684.3643"/>
    </g>
    <g fill="rgb(255,204,0)" text-rendering="geometricPrecision" shape-rendering="geometricPrecision" transform="matrix(1,0,0,1,241,-103)" stroke="rgb(255,204,0)">
      <path d="M471 587 L610.5 587 L626 681 L486.5 681 Z" fill-rule="evenodd" clip-path="url(#clipPath2)" stroke="none"/>
    </g>
    <g text-rendering="geometricPrecision" stroke-miterlimit="1.45" shape-rendering="geometricPrecision" transform="matrix(1,0,0,1,241,-103)" stroke-linecap="butt">
      <path fill="none" d="M471 587 L610.5 587 L626 681 L486.5 681 Z" fill-rule="evenodd" clip-path="url(#clipPath2)"/>
      <text x="511.4805" font-size="18px" y="630.0449" clip-path="url(#clipPath2)" font-family="sans-serif" stroke="none" xml:space="preserve">requests </text>
      <text x="510.4741" font-size="18px" y="652.0967" clip-path="url(#clipPath2)" font-family="sans-serif" stroke="none" xml:space="preserve">allocation</text>
    </g>
    <g fill="rgb(255,204,0)" text-rendering="geometricPrecision" shape-rendering="geometricPrecision" transform="matrix(1,0,0,1,241,-103)" stroke="rgb(255,204,0)">
      <path d="M1277.3906 721 L1351.3906 869 L1203.3906 869 Z" fill-rule="evenodd" clip-path="url(#clipPath2)" stroke="none"/>
    </g>
    <g text-rendering="geometricPrecision" stroke-miterlimit="1.45" shape-rendering="geometricPrecision" transform="matrix(1,0,0,1,241,-103)" stroke-linecap="butt">
      <path fill="none" d="M1277.3906 721 L1351.3906 869 L1203.3906 869 Z" fill-rule="evenodd" clip-path="url(#clipPath2)"/>
      <text x="1357.3906" font-size="24px" y="804.4277" clip-path="url(#clipPath2)" font-family="sans-serif" stroke="none" xml:space="preserve">nectar/node approvers</text>
    </g>
    <g fill="rgb(255,204,0)" text-rendering="geometricPrecision" shape-rendering="geometricPrecision" transform="matrix(1,0,0,1,241,-103)" stroke="rgb(255,204,0)">
      <ellipse rx="52" ry="49.5" clip-path="url(#clipPath2)" cx="1277.3906" cy="745" stroke="none"/>
    </g>
    <g text-rendering="geometricPrecision" stroke-miterlimit="1.45" shape-rendering="geometricPrecision" transform="matrix(1,0,0,1,241,-103)" stroke-linecap="butt">
      <ellipse rx="52" fill="none" ry="49.5" clip-path="url(#clipPath2)" cx="1277.3906" cy="745"/>
    </g>
    <g fill="rgb(255,204,0)" text-rendering="geometricPrecision" shape-rendering="geometricPrecision" transform="matrix(1,0,0,1,241,-103)" stroke="rgb(255,204,0)">
      <rect x="712" width="168" height="94" y="587" clip-path="url(#clipPath2)" stroke="none"/>
    </g>
    <g text-rendering="geometricPrecision" stroke-miterlimit="1.45" shape-rendering="geometricPrecision" transform="matrix(1,0,0,1,241,-103)" stroke-linecap="butt">
      <rect fill="none" x="712" width="168" height="94" y="587" clip-path="url(#clipPath2)"/>
      <text x="725.4546" font-size="18px" y="641.0708" clip-path="url(#clipPath2)" font-family="sans-serif" stroke="none" xml:space="preserve">allocation request</text>
    </g>
    <g fill="rgb(255,204,0)" text-rendering="geometricPrecision" shape-rendering="geometricPrecision" transform="matrix(1,0,0,1,241,-103)" stroke="rgb(255,204,0)">
      <path d="M948 734 L1087.5 734 L1103 828 L963.5 828 Z" fill-rule="evenodd" clip-path="url(#clipPath2)" stroke="none"/>
    </g>
    <g text-rendering="geometricPrecision" stroke-miterlimit="1.45" shape-rendering="geometricPrecision" transform="matrix(1,0,0,1,241,-103)" stroke-linecap="butt">
      <path fill="none" d="M948 734 L1087.5 734 L1103 828 L963.5 828 Z" fill-rule="evenodd" clip-path="url(#clipPath2)"/>
      <text x="987.9839" font-size="18px" y="788.0708" clip-path="url(#clipPath2)" font-family="sans-serif" stroke="none" xml:space="preserve">assesses</text>
    </g>
    <g fill="rgb(255,204,0)" text-rendering="geometricPrecision" shape-rendering="geometricPrecision" transform="matrix(1,0,0,1,241,-103)" stroke="rgb(255,204,0)">
      <rect x="712" width="168" height="94" y="881" clip-path="url(#clipPath2)" stroke="none"/>
    </g>
    <g text-rendering="geometricPrecision" stroke-miterlimit="1.45" shape-rendering="geometricPrecision" transform="matrix(1,0,0,1,241,-103)" stroke-linecap="butt">
      <rect fill="none" x="712" width="168" height="94" y="881" clip-path="url(#clipPath2)"/>
      <text x="768.9868" font-size="18px" y="935.0708" clip-path="url(#clipPath2)" font-family="sans-serif" stroke="none" xml:space="preserve">project</text>
    </g>
    <g fill="rgb(255,204,0)" text-rendering="geometricPrecision" shape-rendering="geometricPrecision" transform="matrix(1,0,0,1,241,-103)" stroke="rgb(255,204,0)">
      <rect x="712" width="168" height="94" y="734" clip-path="url(#clipPath2)" stroke="none"/>
    </g>
    <g text-rendering="geometricPrecision" stroke-miterlimit="1.45" shape-rendering="geometricPrecision" transform="matrix(1,0,0,1,241,-103)" stroke-linecap="butt">
      <rect fill="none" x="712" width="168" height="94" y="734" clip-path="url(#clipPath2)"/>
      <text x="731.4619" font-size="18px" y="788.0708" clip-path="url(#clipPath2)" font-family="sans-serif" stroke="none" xml:space="preserve">rejected request</text>
    </g>
    <g fill="rgb(255,204,0)" text-rendering="geometricPrecision" shape-rendering="geometricPrecision" transform="matrix(1,0,0,1,241,-103)" stroke="rgb(255,204,0)">
      <path d="M941.8486 1107.5696 L1081.3486 1107.5696 L1096.8486 1203.8821 L957.3486 1203.8821 Z" fill-rule="evenodd" clip-path="url(#clipPath2)" stroke="none"/>
    </g>
    <g text-rendering="geometricPrecision" stroke-miterlimit="1.45" shape-rendering="geometricPrecision" transform="matrix(1,0,0,1,241,-103)" stroke-linecap="butt">
      <path fill="none" d="M941.8486 1107.5696 L1081.3486 1107.5696 L1096.8486 1203.8821 L957.3486 1203.8821 Z" fill-rule="evenodd" clip-path="url(#clipPath2)"/>
      <text x="995.3413" font-size="18px" y="1162.7966" clip-path="url(#clipPath2)" font-family="sans-serif" stroke="none" xml:space="preserve">expiry</text>
    </g>
    <g fill="rgb(255,204,0)" text-rendering="geometricPrecision" shape-rendering="geometricPrecision" transform="matrix(1,0,0,1,241,-103)" stroke="rgb(255,204,0)">
      <path d="M489 734 L628.5 734 L644 828 L504.5 828 Z" fill-rule="evenodd" clip-path="url(#clipPath2)" stroke="none"/>
    </g>
    <g text-rendering="geometricPrecision" stroke-miterlimit="1.45" shape-rendering="geometricPrecision" transform="matrix(1,0,0,1,241,-103)" stroke-linecap="butt">
      <path fill="none" d="M489 734 L628.5 734 L644 828 L504.5 828 Z" fill-rule="evenodd" clip-path="url(#clipPath2)"/>
      <text x="529.4805" font-size="18px" y="754.9932" clip-path="url(#clipPath2)" font-family="sans-serif" stroke="none" xml:space="preserve">requests </text>
      <text x="516.4727" font-size="18px" y="777.0449" clip-path="url(#clipPath2)" font-family="sans-serif" stroke="none" xml:space="preserve">amendment </text>
      <text x="555.9971" font-size="18px" y="799.0967" clip-path="url(#clipPath2)" font-family="sans-serif" stroke="none" xml:space="preserve">or </text>
      <text x="527.9731" font-size="18px" y="821.1484" clip-path="url(#clipPath2)" font-family="sans-serif" stroke="none" xml:space="preserve">extension</text>
    </g>
    <g fill="rgb(255,204,0)" text-rendering="geometricPrecision" shape-rendering="geometricPrecision" transform="matrix(1,0,0,1,241,-103)" stroke="rgb(255,204,0)">
      <rect x="482.5" width="168" height="94" y="1095.4531" clip-path="url(#clipPath2)" stroke="none"/>
    </g>
    <g text-rendering="geometricPrecision" stroke-miterlimit="1.45" shape-rendering="geometricPrecision" transform="matrix(1,0,0,1,241,-103)" stroke-linecap="butt">
      <rect fill="none" x="482.5" width="168" height="94" y="1095.4531" clip-path="url(#clipPath2)"/>
      <text x="563.9995" font-size="18px" y="1127.4722" clip-path="url(#clipPath2)" font-family="sans-serif" stroke="none" xml:space="preserve"> </text>
      <text x="535.4878" font-size="18px" y="1149.5239" clip-path="url(#clipPath2)" font-family="sans-serif" stroke="none" xml:space="preserve">multiple</text>
      <text x="518.9731" font-size="18px" y="1171.5757" clip-path="url(#clipPath2)" font-family="sans-serif" stroke="none" xml:space="preserve">notifications</text>
    </g>
    <g fill="rgb(255,204,0)" text-rendering="geometricPrecision" shape-rendering="geometricPrecision" transform="matrix(1,0,0,1,241,-103)" stroke="rgb(255,204,0)">
      <path d="M482.5 1095.4531 L650.5 1095.4531 L566.5 1125.4531 Z" fill-rule="evenodd" clip-path="url(#clipPath2)" stroke="none"/>
    </g>
    <g text-rendering="geometricPrecision" stroke-miterlimit="1.45" shape-rendering="geometricPrecision" transform="matrix(1,0,0,1,241,-103)" stroke-linecap="butt">
      <path fill="none" d="M482.5 1095.4531 L650.5 1095.4531 L566.5 1125.4531 Z" fill-rule="evenodd" clip-path="url(#clipPath2)"/>
    </g>
    <g fill="rgb(255,204,0)" text-rendering="geometricPrecision" shape-rendering="geometricPrecision" transform="matrix(1,0,0,1,241,-103)" stroke="rgb(255,204,0)">
      <rect x="701.6442" width="168" height="94" y="1344.6094" clip-path="url(#clipPath2)" stroke="none"/>
    </g>
    <g text-rendering="geometricPrecision" stroke-miterlimit="1.45" shape-rendering="geometricPrecision" transform="matrix(1,0,0,1,241,-103)" stroke-linecap="butt">
      <rect fill="none" x="701.6442" width="168" height="94" y="1344.6094" clip-path="url(#clipPath2)"/>
      <text x="722.1124" font-size="18px" y="1398.6802" clip-path="url(#clipPath2)" font-family="sans-serif" stroke="none" xml:space="preserve">archived project</text>
    </g>
    <g fill="rgb(255,204,0)" text-rendering="geometricPrecision" shape-rendering="geometricPrecision" transform="matrix(1,0,0,1,241,-103)" stroke="rgb(255,204,0)">
      <rect x="701.6442" width="168" height="94" y="1468.6094" clip-path="url(#clipPath2)" stroke="none"/>
    </g>
    <g text-rendering="geometricPrecision" stroke-miterlimit="1.45" shape-rendering="geometricPrecision" transform="matrix(1,0,0,1,241,-103)" stroke-linecap="butt">
      <rect fill="none" x="701.6442" width="168" height="94" y="1468.6094" clip-path="url(#clipPath2)"/>
      <text x="726.6036" font-size="18px" y="1522.6802" clip-path="url(#clipPath2)" font-family="sans-serif" stroke="none" xml:space="preserve">deleted project</text>
    </g>
    <g fill="rgb(255,204,0)" text-rendering="geometricPrecision" shape-rendering="geometricPrecision" transform="matrix(1,0,0,1,241,-103)" stroke="rgb(255,204,0)">
      <rect x="701.6442" width="168" height="94" y="1220.6094" clip-path="url(#clipPath2)" stroke="none"/>
    </g>
    <g text-rendering="geometricPrecision" stroke-miterlimit="1.45" shape-rendering="geometricPrecision" transform="matrix(1,0,0,1,241,-103)" stroke-linecap="butt">
      <rect fill="none" x="701.6442" width="168" height="94" y="1220.6094" clip-path="url(#clipPath2)"/>
      <text x="731.1168" font-size="18px" y="1274.6802" clip-path="url(#clipPath2)" font-family="sans-serif" stroke="none" xml:space="preserve">frozen project</text>
    </g>
    <g stroke-linecap="butt" transform="matrix(1,0,0,1,241,-103)" fill="silver" text-rendering="geometricPrecision" shape-rendering="geometricPrecision" stroke-dasharray="30,10" stroke="silver" stroke-width="5" stroke-miterlimit="1.45">
      <rect fill="none" x="451.8438" width="482.4531" height="371.3438" y="137.0938" clip-path="url(#clipPath2)"/>
    </g>
    <g stroke-linecap="butt" font-size="24px" transform="matrix(1,0,0,1,241,-103)" fill="silver" text-rendering="geometricPrecision" font-family="sans-serif" shape-rendering="geometricPrecision" stroke="silver" font-weight="bold" stroke-miterlimit="1.45">
      <text x="457.8438" xml:space="preserve" y="167.2227" clip-path="url(#clipPath2)" stroke="none">Account and pt-project</text>
    </g>
    <g stroke-linecap="butt" transform="matrix(1,0,0,1,241,-103)" fill="silver" text-rendering="geometricPrecision" shape-rendering="geometricPrecision" stroke-dasharray="30,10" stroke="silver" stroke-width="5" stroke-miterlimit="1.45">
      <rect fill="none" x="451.8438" width="675.8125" height="474.25" y="538.4375" clip-path="url(#clipPath2)"/>
    </g>
    <g stroke-linecap="butt" font-size="24px" transform="matrix(1,0,0,1,241,-103)" fill="silver" text-rendering="geometricPrecision" font-family="sans-serif" shape-rendering="geometricPrecision" stroke="silver" font-weight="bold" stroke-miterlimit="1.45">
      <text x="457.8438" xml:space="preserve" y="568.5664" clip-path="url(#clipPath2)" stroke="none">Allocation process</text>
    </g>
    <g font-size="18px" stroke-linecap="butt" transform="matrix(1,0,0,1,241,-103)" text-rendering="geometricPrecision" font-family="sans-serif" shape-rendering="geometricPrecision" stroke-miterlimit="1.45">
      <text x="955.2265" xml:space="preserve" y="1432.6543" clip-path="url(#clipPath2)" stroke="none">finally</text>
      <text x="943.8486" xml:space="preserve" y="1331.9547" clip-path="url(#clipPath2)" stroke="none">later</text>
      <text x="943.8486" xml:space="preserve" y="1240.7061" clip-path="url(#clipPath2)" stroke="none">first</text>
    </g>
    <g fill="rgb(255,204,0)" text-rendering="geometricPrecision" shape-rendering="geometricPrecision" transform="matrix(1,0,0,1,241,-103)" stroke="rgb(255,204,0)">
      <rect x="1189.5938" width="148" height="101.3594" y="1127.7812" clip-path="url(#clipPath2)" stroke="none"/>
    </g>
    <g text-rendering="geometricPrecision" stroke-miterlimit="1.45" shape-rendering="geometricPrecision" transform="matrix(1,0,0,1,241,-103)" stroke-linecap="butt">
      <rect fill="none" x="1189.5938" width="148" height="101.3594" y="1127.7812" clip-path="url(#clipPath2)"/>
      <text x="1343.5938" font-size="24px" y="1187.8887" clip-path="url(#clipPath2)" font-family="sans-serif" stroke="none" xml:space="preserve">Expiry bot</text>
    </g>
    <g fill="rgb(255,204,0)" text-rendering="geometricPrecision" shape-rendering="geometricPrecision" transform="matrix(1,0,0,1,241,-103)" stroke="rgb(255,204,0)">
      <rect x="1218.3203" y="1057.4688" clip-path="url(#clipPath2)" width="90.5469" rx="4" ry="4" height="96.3125" stroke="none"/>
    </g>
    <g text-rendering="geometricPrecision" stroke-miterlimit="1.45" shape-rendering="geometricPrecision" transform="matrix(1,0,0,1,241,-103)" stroke-linecap="butt">
      <rect x="1218.3203" y="1057.4688" clip-path="url(#clipPath2)" fill="none" width="90.5469" rx="4" ry="4" height="96.3125"/>
      <text x="954.6812" font-size="18px" y="920.3127" clip-path="url(#clipPath2)" font-family="sans-serif" stroke="none" xml:space="preserve">approve</text>
      <text x="891.9922" font-size="18px" y="822.0449" clip-path="url(#clipPath2)" font-family="sans-serif" stroke="none" xml:space="preserve">reject</text>
    </g>
    <g transform="matrix(1,0,0,1,241,-103)" fill-opacity="0.3961" fill="rgb(255,204,0)" text-rendering="geometricPrecision" shape-rendering="geometricPrecision" stroke="rgb(255,204,0)" stroke-opacity="0.3961">
      <path d="M-115.9086 1387.9507 L-66.6728 118.2195 L31.7987 118.2195 L81.0343 1387.9507 Z" fill-rule="evenodd" clip-path="url(#clipPath2)" stroke="none"/>
    </g>
    <g stroke-linecap="butt" font-size="72px" transform="matrix(0,1,-1,0,269.6665,564.0641)" fill="white" text-rendering="geometricPrecision" font-family="sans-serif" shape-rendering="geometricPrecision" stroke="white" font-weight="bold" stroke-miterlimit="1.45">
      <text x="2" xml:space="preserve" y="74.3867" clip-path="url(#clipPath3)" stroke="none">Time</text>
    </g>
    <g transform="matrix(1,0,0,1,241,-103)" fill-opacity="0.3961" fill="rgb(255,204,0)" text-rendering="geometricPrecision" shape-rendering="geometricPrecision" stroke="rgb(255,204,0)" stroke-opacity="0.3961">
      <path d="M-225.5101 1387.9536 L190.6359 1387.9536 L-17.437 1587.6741 Z" fill-rule="evenodd" clip-path="url(#clipPath2)" stroke="none"/>
    </g>
    <g text-rendering="geometricPrecision" stroke-miterlimit="1.45" shape-rendering="geometricPrecision" transform="matrix(1,0,0,1,241,-103)" stroke-linecap="butt">
      <path fill="none" d="M612.4463 291.922 L635.9886 282.248 L666.5712 272.6145 L697.8636 265.623 L704.0937 264.7762" clip-path="url(#clipPath2)"/>
      <path d="M712.0208 263.6988 L699.4567 260.3604 L703.1028 264.9109 L700.8035 270.2693 Z" clip-path="url(#clipPath2)" stroke="none"/>
      <path fill="none" d="M624.7352 374.0004 L634.4044 378.2973 L649.5277 383.3778 L664.8813 387.4671 L680.4652 390.5653 L696.2794 392.6723 L704.0345 392.9699" clip-path="url(#clipPath2)"/>
      <path d="M712.0287 393.2768 L700.2293 387.8202 L703.0353 392.9316 L699.8458 397.8128 Z" clip-path="url(#clipPath2)" stroke="none"/>
      <path fill="none" d="M296.9099 668.9951 L306.6558 663.7579 L339.5159 649.6786 L372.9391 638.8753 L406.9252 631.3481 L441.4744 627.0969 L469.4588 626.3198 L469.5586 626.3262" clip-path="url(#clipPath2)"/>
      <path d="M477.5572 626.1761 L465.4655 621.4021 L468.5588 626.345 L465.6531 631.4004 Z" clip-path="url(#clipPath2)" stroke="none"/>
      <path fill="none" d="M620.8587 649.8278 L641.3125 652.2396 L672.25 653.4556 L703.1875 652.2396 L704.0344 652.1398" clip-path="url(#clipPath2)"/>
      <path d="M711.9793 651.2029 L699.4764 647.6426 L703.0413 652.2569 L700.6474 657.5738 Z" clip-path="url(#clipPath2)" stroke="none"/>
      <path fill="none" d="M879.9848 627.6641 L880.9375 627.7188 L899.3008 630.6309 L916.5156 635.3359 L932.582 641.834 L947.5 650.125 L961.2695 660.209 L973.8906 672.0859 L985.3633 685.7559 L995.6875 701.2188 L1004.8633 718.4746 L1008.2945 726.6169" clip-path="url(#clipPath2)"/>
      <path d="M1011.4012 733.989 L1011.3488 720.9891 L1007.9061 725.6954 L1002.1335 724.8725 Z" clip-path="url(#clipPath2)" stroke="none"/>
      <path fill="none" d="M1241.3843 792.9988 L1103.8767 785.3561" clip-path="url(#clipPath2)"/>
      <path d="M1095.889 784.9122 L1107.593 790.5704 L1104.8751 785.4116 L1108.1481 780.5858 Z" clip-path="url(#clipPath2)" stroke="none"/>
      <path fill="none" d="M1011.4012 828.011 L1004.8633 843.5254 L995.6875 860.7812 L985.3633 876.2441 L973.8906 889.9141 L961.2695 901.791 L947.5 911.875 L932.582 920.166 L916.5156 926.6641 L899.3008 931.3691 L887.9005 933.1771 L887.8006 933.1828" clip-path="url(#clipPath2)"/>
      <path d="M879.8863 934.3504 L892.4875 937.5455 L888.7899 933.0369 L891.028 927.6525 Z" clip-path="url(#clipPath2)" stroke="none"/>
      <path fill="none" d="M958.2917 796.5397 L939.4375 798.8914 L910.75 800.0842 L888.0016 799.1384 L887.9024 799.126" clip-path="url(#clipPath2)"/>
      <path d="M879.9178 798.6302 L891.5848 804.3643 L888.9005 799.188 L892.2046 794.3835 Z" clip-path="url(#clipPath2)" stroke="none"/>
      <path fill="none" d="M858.8909 975.0137 L860.5862 976.3506 L890.692 1002.6711 L919.3397 1030.4218 L946.5292 1059.6025 L972.2605 1090.2135 L980.5855 1101.2028" clip-path="url(#clipPath2)"/>
      <path d="M985.4163 1107.5796 L982.1556 1094.9951 L979.9817 1100.4056 L974.1846 1101.0337 Z" clip-path="url(#clipPath2)" stroke="none"/>
      <path fill="none" d="M292.5706 753.0366 L325.15 762.8419 L364.5136 772.0948 L404.2218 778.8571 L444.2745 783.1287 L484.6718 784.9098 L489.3651 784.8281" clip-path="url(#clipPath2)"/>
      <path d="M497.3639 784.6887 L485.2786 779.8985 L488.3652 784.8455 L485.4528 789.897 Z" clip-path="url(#clipPath2)" stroke="none"/>
      <path fill="none" stroke-dasharray="12,4" d="M711.9826 797.1654 L709.9375 797.3992 L681.25 798.4925 L652.5625 797.3992 L647.6368 796.8361" stroke-width="2" clip-path="url(#clipPath2)"/>
      <path stroke-dasharray="12,4" d="M638.695 795.8138 L651.4687 802.9358 L648.7545 796.9639 L652.7466 791.7586 Z" stroke-width="2" clip-path="url(#clipPath2)" stroke="none"/>
      <path fill="none" d="M631.5098 752.2836 L659.7886 737.1566 L688.9578 719.5337 L717.1636 700.4066 L736.4056 685.8341" clip-path="url(#clipPath2)"/>
      <path d="M742.7831 681.0043 L730.1982 684.2631 L735.6084 686.4379 L736.2355 692.235 Z" clip-path="url(#clipPath2)" stroke="none"/>
      <path fill="none" d="M949.7036 1156.2783 L906.0129 1156.625 L792.7595 1154.7125 L679.5886 1149.9885 L658.4823 1148.5822" clip-path="url(#clipPath2)"/>
      <path d="M650.5 1148.0503 L662.1411 1153.837 L659.4801 1148.6487 L662.8058 1143.8591 Z" clip-path="url(#clipPath2)" stroke="none"/>
      <path fill="none" d="M482.4763 1112.0923 L461.1957 1102.1835 L430.7592 1085.0907 L402.6553 1066.1632 L376.8838 1045.4008 L353.4449 1022.8036 L332.3384 998.3718 L313.5644 972.105 L297.1229 944.0036 L283.0139 914.0673 L271.2374 882.2963 L261.7934 848.6904 L255.7873 818.7587 L255.7746 818.6595" clip-path="url(#clipPath2)"/>
      <path d="M254.3609 810.7855 L251.5602 823.4802 L255.9513 819.6438 L261.4028 821.7131 Z" clip-path="url(#clipPath2)" stroke="none"/>
      <path fill="none" d="M1010.1877 1203.8799 L1009.9663 1204.8588 L1003.1504 1227.3202 L994.918 1248.3782 L985.2692 1268.0327 L974.2039 1286.2839 L961.722 1303.1317 L947.8237 1318.5762 L932.509 1332.6172 L915.7777 1345.2549 L897.63 1356.489 L878.0658 1366.3199 L877.0889 1366.7124" clip-path="url(#clipPath2)"/>
      <path d="M869.6653 1369.6942 L882.6642 1369.8612 L878.0168 1366.3397 L878.937 1360.5818 Z" clip-path="url(#clipPath2)" stroke="none"/>
      <path fill="none" d="M1025.8448 1203.8829 L1027.5857 1225.031 L1027.6917 1257.0779 L1025.1227 1287.3877 L1019.8787 1315.9603 L1011.9597 1342.7958 L1001.3657 1367.8942 L988.0967 1391.2555 L972.1526 1412.8796 L953.5336 1432.7667 L932.2395 1450.9166 L908.2704 1467.3293 L881.6264 1482.0051 L876.9487 1484.0695" clip-path="url(#clipPath2)"/>
      <path d="M869.6296 1487.2993 L882.6268 1487.0289 L877.8635 1483.6658 L878.5895 1477.8801 Z" clip-path="url(#clipPath2)" stroke="none"/>
      <path fill="none" d="M978.7643 1203.8983 L973.1616 1209.262 L960.3399 1219.9829 L947.0082 1229.6387 L933.1667 1238.2292 L918.8151 1245.7545 L903.9536 1252.2146 L888.5822 1257.6095 L877.4316 1260.6494 L877.3335 1260.6689" clip-path="url(#clipPath2)"/>
      <path d="M869.5623 1262.5686 L882.4064 1264.576 L878.3049 1260.4314 L880.0317 1254.8621 Z" clip-path="url(#clipPath2)" stroke="none"/>
      <path fill="none" d="M254.2032 635.2567 L263.6083 590.4254 L275.9217 548.678 L291.0601 510.412 L299.6887 492.5845 L309.0235 475.6273 L319.0646 459.5405 L329.812 444.324 L341.2655 429.9779 L353.4253 416.5021 L366.2914 403.8966 L379.8637 392.1615 L394.1423 381.2967 L409.1271 371.3022 L424.8181 362.1781 L441.2154 353.9243 L444.5269 352.4948" clip-path="url(#clipPath2)"/>
      <path d="M451.8717 349.3241 L438.8728 349.4896 L443.6088 352.8911 L442.8362 358.6707 Z" clip-path="url(#clipPath2)" stroke="none"/>
      <path fill="none" d="M1189.5938 1171.5728 L1098.0973 1163.056" clip-path="url(#clipPath2)"/>
      <path d="M1090.1317 1162.3146 L1101.6167 1168.4053 L1099.093 1163.1487 L1102.5435 1158.4482 Z" clip-path="url(#clipPath2)" stroke="none"/>
    </g>
  </g>
</svg>
